<svg version="1.1" viewBox="0.0 0.0 552.01312335958 228.0262467191601" fill="none" stroke="none" stroke-linecap="square" stroke-miterlimit="10" xmlns:xlink="http://www.w3.org/1999/xlink" xmlns="http://www.w3.org/2000/svg"><clipPath id="p.0"><path d="m0 0l552.0131 0l0 228.02625l-552.0131 0l0 -228.02625z" clip-rule="nonzero"/></clipPath><g clip-path="url(#p.0)"><path fill="#000000" fill-opacity="0.0" d="m0 0l552.0131 0l0 228.02625l-552.0131 0z" fill-rule="evenodd"/><path shape-rendering="crispEdges" fill="#fff2cc" d="m11.965941 167.49606l54.860893 0l0 25.254593l-54.860893 0l0 -25.254593z" fill-rule="nonzero"/><path shape-rendering="crispEdges" fill="#fff2cc" d="m66.826836 167.49606l54.860893 0l0 25.254593l-54.860893 0l0 -25.254593z" fill-rule="nonzero"/><path shape-rendering="crispEdges" fill="#fff2cc" d="m121.68773 167.49606l54.860886 0l0 25.254593l-54.860886 0l0 -25.254593z" fill-rule="nonzero"/><path shape-rendering="crispEdges" fill="#fff2cc" d="m176.54861 167.49606l54.8609 0l0 25.254593l-54.8609 0l0 -25.254593z" fill-rule="nonzero"/><path shape-rendering="crispEdges" fill="#fff2cc" d="m231.40952 167.49606l54.8609 0l0 25.254593l-54.8609 0l0 -25.254593z" fill-rule="nonzero"/><path shape-rendering="crispEdges" fill="#fff2cc" d="m286.27042 167.49606l54.86087 0l0 25.254593l-54.86087 0l0 -25.254593z" fill-rule="nonzero"/><path shape-rendering="crispEdges" fill="#fff2cc" d="m341.1313 167.49606l54.8609 0l0 25.254593l-54.8609 0l0 -25.254593z" fill-rule="nonzero"/><path stroke="#434343" stroke-width="1.0" stroke-linecap="butt" d="m11.965941 59.501312l0 156.99738" fill-rule="nonzero"/><path stroke="#cccccc" stroke-width="1.0" stroke-linecap="butt" d="m66.826836 91.2336l0 75.76378" fill-rule="nonzero"/><path stroke="#434343" stroke-width="1.0" stroke-linecap="butt" d="m66.826836 166.99738l0 26.251968" fill-rule="nonzero"/><path stroke="#cccccc" stroke-width="1.0" stroke-linecap="butt" d="m121.68773 91.2336l0 75.76378" fill-rule="nonzero"/><path stroke="#434343" stroke-width="1.0" stroke-linecap="butt" d="m121.68773 166.99738l0 26.251968" fill-rule="nonzero"/><path stroke="#cccccc" stroke-width="1.0" stroke-linecap="butt" d="m176.54861 91.2336l0 75.76378" fill-rule="nonzero"/><path stroke="#434343" stroke-width="1.0" stroke-linecap="butt" d="m176.54861 166.99738l0 26.251968" fill-rule="nonzero"/><path stroke="#cccccc" stroke-width="1.0" stroke-linecap="butt" d="m231.40952 91.2336l0 75.76378" fill-rule="nonzero"/><path stroke="#434343" stroke-width="1.0" stroke-linecap="butt" d="m231.40952 166.99738l0 26.251968" fill-rule="nonzero"/><path stroke="#cccccc" stroke-width="1.0" stroke-linecap="butt" d="m286.27042 91.2336l0 75.76378" fill-rule="nonzero"/><path stroke="#434343" stroke-width="1.0" stroke-linecap="butt" d="m286.27042 166.99738l0 26.251968" fill-rule="nonzero"/><path stroke="#cccccc" stroke-width="1.0" stroke-linecap="butt" d="m341.1313 91.2336l0 75.76378" fill-rule="nonzero"/><path stroke="#434343" stroke-width="1.0" stroke-linecap="butt" d="m341.1313 166.99738l0 26.251968" fill-rule="nonzero"/><path stroke="#434343" stroke-width="1.0" stroke-linecap="butt" d="m395.9922 59.501312l0 156.99738" fill-rule="nonzero"/><path stroke="#434343" stroke-width="1.0" stroke-linecap="butt" d="m11.467254 60.0l385.02362 0" fill-rule="nonzero"/><path stroke="#434343" stroke-width="1.0" stroke-linecap="butt" d="m11.467254 91.732285l385.02362 0" fill-rule="nonzero"/><path stroke="#cccccc" stroke-width="1.0" stroke-linecap="butt" d="m11.467254 116.98688l385.02362 0" fill-rule="nonzero"/><path stroke="#cccccc" stroke-width="1.0" stroke-linecap="butt" d="m11.467254 142.24147l385.02362 0" fill-rule="nonzero"/><path stroke="#434343" stroke-width="1.0" stroke-linecap="butt" d="m11.467254 167.49606l385.02362 0" fill-rule="nonzero"/><path stroke="#434343" stroke-width="1.0" stroke-linecap="butt" d="m11.467254 192.75066l385.02362 0" fill-rule="nonzero"/><path stroke="#434343" stroke-width="1.0" stroke-linecap="butt" d="m11.467254 216.0l385.02362 0" fill-rule="nonzero"/><path fill="#000000" d="m183.65125 79.22614l0 -6.671875l2.171875 0q1.234375 0 1.609375 0.09375q0.5625 0.15625 0.953125 0.65625q0.390625 0.5 0.390625 1.296875q0 0.609375 -0.234375 1.03125q-0.21875 0.421875 -0.5625 0.671875q-0.34375 0.234375 -0.703125 0.3125q-0.46875 0.09375 -1.390625 0.09375l-0.875 0l0 2.515625l-1.359375 0zm1.359375 -5.546875l0 1.890625l0.734375 0q0.796875 0 1.0625 -0.09375q0.265625 -0.109375 0.421875 -0.328125q0.15625 -0.234375 0.15625 -0.53125q0 -0.359375 -0.21875 -0.59375q-0.21875 -0.234375 -0.546875 -0.296875q-0.234375 -0.046875 -0.96875 -0.046875l-0.640625 0zm6.0811615 5.546875l-1.28125 0l0 -4.84375l1.1875 0l0 0.6875q0.3125 -0.484375 0.546875 -0.640625q0.25 -0.15625 0.5625 -0.15625q0.4375 0 0.84375 0.25l-0.390625 1.109375q-0.328125 -0.203125 -0.609375 -0.203125q-0.265625 0 -0.453125 0.15625q-0.1875 0.140625 -0.296875 0.53125q-0.109375 0.375 -0.109375 1.609375l0 1.5zm5.208267 -1.546875l1.28125 0.21875q-0.25 0.703125 -0.78125 1.078125q-0.53125 0.359375 -1.328125 0.359375q-1.265625 0 -1.859375 -0.828125q-0.484375 -0.65625 -0.484375 -1.65625q0 -1.203125 0.625 -1.890625q0.625 -0.6875 1.59375 -0.6875q1.078125 0 1.703125 0.71875q0.625 0.71875 0.59375 2.1875l-3.203125 0q0.015625 0.5625 0.3125 0.890625q0.296875 0.3125 0.734375 0.3125q0.296875 0 0.5 -0.15625q0.203125 -0.171875 0.3125 -0.546875zm0.078125 -1.28125q-0.015625 -0.5625 -0.296875 -0.84375q-0.265625 -0.296875 -0.65625 -0.296875q-0.421875 0 -0.6875 0.3125q-0.28125 0.296875 -0.28125 0.828125l1.921875 0zm3.2659912 -0.53125l-1.15625 -0.21875q0.1875 -0.6875 0.65625 -1.03125q0.484375 -0.34375 1.4375 -0.34375q0.859375 0 1.265625 0.203125q0.421875 0.203125 0.59375 0.515625q0.171875 0.3125 0.171875 1.15625l-0.015625 1.484375q0 0.640625 0.0625 0.953125q0.0625 0.296875 0.234375 0.640625l-1.265625 0q-0.046875 -0.125 -0.125 -0.375q-0.03125 -0.109375 -0.046875 -0.15625q-0.328125 0.328125 -0.703125 0.484375q-0.375 0.15625 -0.796875 0.15625q-0.75 0 -1.1875 -0.40625q-0.421875 -0.40625 -0.421875 -1.03125q0 -0.40625 0.1875 -0.71875q0.203125 -0.328125 0.5625 -0.5q0.359375 -0.171875 1.015625 -0.296875q0.90625 -0.171875 1.25 -0.3125l0 -0.125q0 -0.375 -0.1875 -0.53125q-0.1875 -0.15625 -0.6875 -0.15625q-0.34375 0 -0.53125 0.140625q-0.1875 0.125 -0.3125 0.46875zm1.71875 1.03125q-0.25 0.09375 -0.78125 0.203125q-0.53125 0.109375 -0.703125 0.21875q-0.25 0.1875 -0.25 0.453125q0 0.265625 0.203125 0.46875q0.203125 0.1875 0.515625 0.1875q0.34375 0 0.65625 -0.21875q0.234375 -0.171875 0.296875 -0.421875q0.0625 -0.171875 0.0625 -0.625l0 -0.265625zm2.4222412 -2.515625l1.171875 0l0 0.671875q0.640625 -0.78125 1.515625 -0.78125q0.453125 0 0.796875 0.203125q0.34375 0.1875 0.5625 0.578125q0.328125 -0.390625 0.6875 -0.578125q0.375 -0.203125 0.796875 -0.203125q0.53125 0 0.890625 0.21875q0.375 0.21875 0.5625 0.640625q0.125 0.3125 0.125 1.0l0 3.09375l-1.28125 0l0 -2.765625q0 -0.71875 -0.125 -0.921875q-0.1875 -0.28125 -0.546875 -0.28125q-0.265625 0 -0.515625 0.171875q-0.234375 0.15625 -0.34375 0.484375q-0.09375 0.3125 -0.09375 0.984375l0 2.328125l-1.28125 0l0 -2.65625q0 -0.703125 -0.078125 -0.90625q-0.0625 -0.203125 -0.203125 -0.296875q-0.140625 -0.109375 -0.390625 -0.109375q-0.296875 0 -0.53125 0.171875q-0.234375 0.15625 -0.34375 0.453125q-0.09375 0.296875 -0.09375 1.0l0 2.34375l-1.28125 0l0 -4.84375zm8.325455 4.84375l0 -6.671875l1.28125 0l0 2.40625q0.59375 -0.6875 1.40625 -0.6875q0.890625 0 1.46875 0.640625q0.578125 0.640625 0.578125 1.84375q0 1.234375 -0.59375 1.90625q-0.59375 0.671875 -1.4375 0.671875q-0.40625 0 -0.8125 -0.203125q-0.40625 -0.21875 -0.703125 -0.609375l0 0.703125l-1.1875 0zm1.28125 -2.515625q0 0.75 0.234375 1.109375q0.328125 0.5 0.875 0.5q0.4375 0 0.734375 -0.359375q0.296875 -0.359375 0.296875 -1.140625q0 -0.828125 -0.3125 -1.1875q-0.296875 -0.375 -0.765625 -0.375q-0.453125 0 -0.765625 0.359375q-0.296875 0.359375 -0.296875 1.09375zm4.479248 2.515625l0 -6.671875l1.28125 0l0 6.671875l-1.28125 0zm5.3885345 -1.546875l1.28125 0.21875q-0.25 0.703125 -0.78125 1.078125q-0.53125 0.359375 -1.328125 0.359375q-1.265625 0 -1.859375 -0.828125q-0.484375 -0.65625 -0.484375 -1.65625q0 -1.203125 0.625 -1.890625q0.625 -0.6875 1.59375 -0.6875q1.078125 0 1.703125 0.71875q0.625 0.71875 0.59375 2.1875l-3.203125 0q0.015625 0.5625 0.3125 0.890625q0.296875 0.3125 0.734375 0.3125q0.296875 0 0.5 -0.15625q0.203125 -0.171875 0.3125 -0.546875zm0.078125 -1.28125q-0.015625 -0.5625 -0.296875 -0.84375q-0.265625 -0.296875 -0.65625 -0.296875q-0.421875 0 -0.6875 0.3125q-0.28125 0.296875 -0.28125 0.828125l1.921875 0z" fill-rule="nonzero"/><path fill="#000000" d="m40.271206 107.71958l-0.8125 0l0 -5.21875q-0.296875 0.28125 -0.78125 0.5625q-0.484375 0.28125 -0.859375 0.421875l0 -0.796875q0.6875 -0.328125 1.203125 -0.78125q0.515625 -0.453125 0.734375 -0.890625l0.515625 0l0 6.703125z" fill-rule="nonzero"/><path fill="#000000" d="m96.36647 106.93833l0 0.78125l-4.421875 0q-0.015625 -0.296875 0.09375 -0.5625q0.171875 -0.453125 0.53125 -0.890625q0.375 -0.4375 1.078125 -1.015625q1.09375 -0.890625 1.46875 -1.40625q0.390625 -0.53125 0.390625 -1.0q0 -0.484375 -0.359375 -0.8125q-0.34375 -0.34375 -0.890625 -0.34375q-0.59375 0 -0.953125 0.359375q-0.359375 0.359375 -0.359375 0.984375l-0.84375 -0.078125q0.09375 -0.953125 0.65625 -1.4375q0.5625 -0.5 1.515625 -0.5q0.953125 0 1.515625 0.53125q0.5625 0.53125 0.5625 1.328125q0 0.390625 -0.171875 0.78125q-0.15625 0.390625 -0.546875 0.828125q-0.375 0.421875 -1.25 1.15625q-0.734375 0.625 -0.953125 0.84375q-0.203125 0.21875 -0.34375 0.453125l3.28125 0z" fill-rule="nonzero"/><path fill="#000000" d="m146.91487 105.95396l0.828125 -0.109375q0.140625 0.703125 0.46875 1.015625q0.34375 0.296875 0.828125 0.296875q0.578125 0 0.96875 -0.390625q0.40625 -0.40625 0.40625 -1.0q0 -0.5625 -0.375 -0.921875q-0.359375 -0.375 -0.921875 -0.375q-0.234375 0 -0.578125 0.09375l0.078125 -0.71875q0.09375 0 0.140625 0q0.515625 0 0.9375 -0.265625q0.421875 -0.28125 0.421875 -0.84375q0 -0.453125 -0.3125 -0.75q-0.296875 -0.296875 -0.78125 -0.296875q-0.484375 0 -0.796875 0.3125q-0.3125 0.296875 -0.40625 0.890625l-0.828125 -0.140625q0.15625 -0.828125 0.6875 -1.28125q0.53125 -0.453125 1.328125 -0.453125q0.546875 0 1.0 0.234375q0.46875 0.234375 0.703125 0.640625q0.25 0.40625 0.25 0.859375q0 0.4375 -0.234375 0.796875q-0.234375 0.34375 -0.6875 0.5625q0.59375 0.125 0.921875 0.5625q0.328125 0.421875 0.328125 1.078125q0 0.875 -0.640625 1.484375q-0.640625 0.609375 -1.609375 0.609375q-0.875 0 -1.46875 -0.515625q-0.578125 -0.53125 -0.65625 -1.375z" fill-rule="nonzero"/><path fill="#000000" d="m204.40076 107.71958l0 -1.59375l-2.890625 0l0 -0.75l3.046875 -4.328125l0.65625 0l0 4.328125l0.90625 0l0 0.75l-0.90625 0l0 1.59375l-0.8125 0zm0 -2.34375l0 -3.015625l-2.09375 3.015625l2.09375 0z" fill-rule="nonzero"/><path fill="#000000" d="m256.63666 105.96958l0.859375 -0.078125q0.09375 0.640625 0.4375 0.953125q0.359375 0.3125 0.84375 0.3125q0.59375 0 1.0 -0.4375q0.40625 -0.453125 0.40625 -1.1875q0 -0.703125 -0.390625 -1.109375q-0.390625 -0.40625 -1.03125 -0.40625q-0.390625 0 -0.71875 0.1875q-0.3125 0.171875 -0.5 0.453125l-0.765625 -0.09375l0.640625 -3.4375l3.328125 0l0 0.796875l-2.671875 0l-0.359375 1.78125q0.609375 -0.40625 1.265625 -0.40625q0.875 0 1.46875 0.609375q0.609375 0.59375 0.609375 1.546875q0 0.90625 -0.53125 1.5625q-0.640625 0.8125 -1.75 0.8125q-0.90625 0 -1.484375 -0.5q-0.578125 -0.515625 -0.65625 -1.359375z" fill-rule="nonzero"/><path fill="#000000" d="m315.74753 102.67271l-0.8125 0.0625q-0.109375 -0.484375 -0.3125 -0.703125q-0.328125 -0.34375 -0.8125 -0.34375q-0.390625 0 -0.6875 0.21875q-0.390625 0.28125 -0.625 0.828125q-0.21875 0.53125 -0.21875 1.546875q0.296875 -0.453125 0.71875 -0.671875q0.421875 -0.21875 0.890625 -0.21875q0.828125 0 1.40625 0.609375q0.578125 0.59375 0.578125 1.546875q0 0.625 -0.28125 1.171875q-0.265625 0.546875 -0.75 0.828125q-0.46875 0.28125 -1.0625 0.28125q-1.03125 0 -1.6875 -0.75q-0.640625 -0.75 -0.640625 -2.484375q0 -1.9375 0.71875 -2.8125q0.625 -0.765625 1.6875 -0.765625q0.78125 0 1.28125 0.4375q0.515625 0.4375 0.609375 1.21875zm-3.34375 2.890625q0 0.421875 0.171875 0.8125q0.1875 0.375 0.5 0.578125q0.328125 0.203125 0.6875 0.203125q0.515625 0 0.890625 -0.40625q0.375 -0.421875 0.375 -1.15625q0 -0.6875 -0.375 -1.078125q-0.359375 -0.40625 -0.921875 -0.40625q-0.5625 0 -0.953125 0.40625q-0.375 0.390625 -0.375 1.046875z" fill-rule="nonzero"/><path fill="#000000" d="m366.4053 101.92271l0 -0.796875l4.328125 0l0 0.640625q-0.640625 0.671875 -1.265625 1.796875q-0.625 1.125 -0.96875 2.328125q-0.25 0.828125 -0.3125 1.828125l-0.84375 0q0.015625 -0.78125 0.3125 -1.890625q0.296875 -1.125 0.84375 -2.15625q0.5625 -1.046875 1.1875 -1.75l-3.28125 0z" fill-rule="nonzero"/><path fill="#000000" d="m31.955662 132.97417l-0.765625 0l0 -6.6718674l0.828125 0l0 2.3749924q0.515625 -0.65625 1.3125 -0.65625q0.453125 0 0.84375 0.1875q0.40625 0.171875 0.65625 0.5q0.265625 0.328125 0.40625 0.796875q0.15625 0.453125 0.15625 0.984375q0 1.234375 -0.625 1.921875q-0.609375 0.671875 -1.46875 0.671875q-0.859375 0 -1.34375 -0.71875l0 0.609375zm-0.015625 -2.453125q0 0.875 0.234375 1.25q0.390625 0.640625 1.046875 0.640625q0.546875 0 0.9375 -0.46875q0.390625 -0.46875 0.390625 -1.390625q0 -0.953125 -0.375 -1.390625q-0.375 -0.453125 -0.90625 -0.453125q-0.546875 0 -0.9375 0.46875q-0.390625 0.453125 -0.390625 1.34375zm4.406616 4.3125l-0.09375 -0.765625q0.265625 0.078125 0.46875 0.078125q0.28125 0 0.4375 -0.09375q0.171875 -0.09375 0.265625 -0.265625q0.078125 -0.109375 0.25 -0.609375q0.03125 -0.0625 0.078125 -0.1875l-1.828125 -4.859375l0.875 0l1.015625 2.8125q0.1875 0.53125 0.34375 1.109375q0.140625 -0.5625 0.34375 -1.09375l1.03125 -2.828125l0.8125 0l-1.84375 4.921875q-0.28125 0.796875 -0.453125 1.09375q-0.21875 0.40625 -0.5 0.59375q-0.28125 0.203125 -0.671875 0.203125q-0.234375 0 -0.53125 -0.109375zm6.4921875 -2.59375l0.109375 0.71875q-0.34375 0.078125 -0.609375 0.078125q-0.453125 0 -0.703125 -0.140625q-0.234375 -0.140625 -0.34375 -0.359375q-0.09375 -0.234375 -0.09375 -0.984375l0 -2.78125l-0.609375 0l0 -0.640625l0.609375 0l0 -1.1874924l0.8125 -0.5l0 1.6874924l0.828125 0l0 0.640625l-0.828125 0l0 2.828125q0 0.359375 0.046875 0.46875q0.046875 0.09375 0.140625 0.15625q0.09375 0.046875 0.28125 0.046875q0.140625 0 0.359375 -0.03125zm4.1072845 -0.828125l0.84375 0.109375q-0.1875 0.75 -0.734375 1.15625q-0.546875 0.40625 -1.390625 0.40625q-1.0625 0 -1.6875 -0.65625q-0.609375 -0.65625 -0.609375 -1.828125q0 -1.21875 0.625 -1.890625q0.625 -0.6875 1.625 -0.6875q0.984375 0 1.59375 0.671875q0.609375 0.65625 0.609375 1.859375q0 0.0625 0 0.21875l-3.609375 0q0.046875 0.796875 0.453125 1.21875q0.40625 0.421875 1.015625 0.421875q0.453125 0 0.765625 -0.234375q0.3125 -0.234375 0.5 -0.765625zm-2.6875 -1.328125l2.703125 0q-0.0625 -0.609375 -0.3125 -0.90625q-0.390625 -0.46875 -1.015625 -0.46875q-0.5625 0 -0.953125 0.375q-0.375 0.375 -0.421875 1.0z" fill-rule="nonzero"/><path fill="#000000" d="m86.81655 132.97417l-0.765625 0l0 -6.6718674l0.828125 0l0 2.3749924q0.515625 -0.65625 1.3125 -0.65625q0.453125 0 0.84375 0.1875q0.40625 0.171875 0.65625 0.5q0.265625 0.328125 0.40625 0.796875q0.15625 0.453125 0.15625 0.984375q0 1.234375 -0.625 1.921875q-0.609375 0.671875 -1.46875 0.671875q-0.859375 0 -1.34375 -0.71875l0 0.609375zm-0.015625 -2.453125q0 0.875 0.234375 1.25q0.390625 0.640625 1.046875 0.640625q0.546875 0 0.9375 -0.46875q0.390625 -0.46875 0.390625 -1.390625q0 -0.953125 -0.375 -1.390625q-0.375 -0.453125 -0.90625 -0.453125q-0.546875 0 -0.9375 0.46875q-0.390625 0.453125 -0.390625 1.34375zm4.406616 4.3125l-0.09375 -0.765625q0.265625 0.078125 0.46875 0.078125q0.28125 0 0.4375 -0.09375q0.171875 -0.09375 0.265625 -0.265625q0.078125 -0.109375 0.25 -0.609375q0.03125 -0.0625 0.078125 -0.1875l-1.828125 -4.859375l0.875 0l1.015625 2.8125q0.1875 0.53125 0.34375 1.109375q0.140625 -0.5625 0.34375 -1.09375l1.03125 -2.828125l0.8125 0l-1.84375 4.921875q-0.28125 0.796875 -0.453125 1.09375q-0.21875 0.40625 -0.5 0.59375q-0.28125 0.203125 -0.671875 0.203125q-0.234375 0 -0.53125 -0.109375zm6.4921875 -2.59375l0.109375 0.71875q-0.34375 0.078125 -0.609375 0.078125q-0.453125 0 -0.703125 -0.140625q-0.234375 -0.140625 -0.34375 -0.359375q-0.09375 -0.234375 -0.09375 -0.984375l0 -2.78125l-0.609375 0l0 -0.640625l0.609375 0l0 -1.1874924l0.8125 -0.5l0 1.6874924l0.828125 0l0 0.640625l-0.828125 0l0 2.828125q0 0.359375 0.046875 0.46875q0.046875 0.09375 0.140625 0.15625q0.09375 0.046875 0.28125 0.046875q0.140625 0 0.359375 -0.03125zm4.1072845 -0.828125l0.84375 0.109375q-0.1875 0.75 -0.734375 1.15625q-0.546875 0.40625 -1.390625 0.40625q-1.0625 0 -1.6875 -0.65625q-0.609375 -0.65625 -0.609375 -1.828125q0 -1.21875 0.625 -1.890625q0.625 -0.6875 1.625 -0.6875q0.984375 0 1.59375 0.671875q0.609375 0.65625 0.609375 1.859375q0 0.0625 0 0.21875l-3.609375 0q0.046875 0.796875 0.453125 1.21875q0.40625 0.421875 1.015625 0.421875q0.453125 0 0.765625 -0.234375q0.3125 -0.234375 0.5 -0.765625zm-2.6875 -1.328125l2.703125 0q-0.0625 -0.609375 -0.3125 -0.90625q-0.390625 -0.46875 -1.015625 -0.46875q-0.5625 0 -0.953125 0.375q-0.375 0.375 -0.421875 1.0z" fill-rule="nonzero"/><path fill="#000000" d="m141.67744 132.97417l-0.765625 0l0 -6.6718674l0.828125 0l0 2.3749924q0.515625 -0.65625 1.3125 -0.65625q0.453125 0 0.84375 0.1875q0.40625 0.171875 0.65625 0.5q0.265625 0.328125 0.40625 0.796875q0.15625 0.453125 0.15625 0.984375q0 1.234375 -0.625 1.921875q-0.609375 0.671875 -1.46875 0.671875q-0.859375 0 -1.34375 -0.71875l0 0.609375zm-0.015625 -2.453125q0 0.875 0.234375 1.25q0.390625 0.640625 1.046875 0.640625q0.546875 0 0.9375 -0.46875q0.390625 -0.46875 0.390625 -1.390625q0 -0.953125 -0.375 -1.390625q-0.375 -0.453125 -0.90625 -0.453125q-0.546875 0 -0.9375 0.46875q-0.390625 0.453125 -0.390625 1.34375zm4.406616 4.3125l-0.09375 -0.765625q0.265625 0.078125 0.46875 0.078125q0.28125 0 0.4375 -0.09375q0.171875 -0.09375 0.265625 -0.265625q0.078125 -0.109375 0.25 -0.609375q0.03125 -0.0625 0.078125 -0.1875l-1.828125 -4.859375l0.875 0l1.015625 2.8125q0.1875 0.53125 0.34375 1.109375q0.140625 -0.5625 0.34375 -1.09375l1.03125 -2.828125l0.8125 0l-1.84375 4.921875q-0.28125 0.796875 -0.453125 1.09375q-0.21875 0.40625 -0.5 0.59375q-0.28125 0.203125 -0.671875 0.203125q-0.234375 0 -0.53125 -0.109375zm6.4921875 -2.59375l0.109375 0.71875q-0.34375 0.078125 -0.609375 0.078125q-0.453125 0 -0.703125 -0.140625q-0.234375 -0.140625 -0.34375 -0.359375q-0.09375 -0.234375 -0.09375 -0.984375l0 -2.78125l-0.609375 0l0 -0.640625l0.609375 0l0 -1.1874924l0.8125 -0.5l0 1.6874924l0.828125 0l0 0.640625l-0.828125 0l0 2.828125q0 0.359375 0.046875 0.46875q0.046875 0.09375 0.140625 0.15625q0.09375 0.046875 0.28125 0.046875q0.140625 0 0.359375 -0.03125zm4.1072845 -0.828125l0.84375 0.109375q-0.1875 0.75 -0.734375 1.15625q-0.546875 0.40625 -1.390625 0.40625q-1.0625 0 -1.6875 -0.65625q-0.609375 -0.65625 -0.609375 -1.828125q0 -1.21875 0.625 -1.890625q0.625 -0.6875 1.625 -0.6875q0.984375 0 1.59375 0.671875q0.609375 0.65625 0.609375 1.859375q0 0.0625 0 0.21875l-3.609375 0q0.046875 0.796875 0.453125 1.21875q0.40625 0.421875 1.015625 0.421875q0.453125 0 0.765625 -0.234375q0.3125 -0.234375 0.5 -0.765625zm-2.6875 -1.328125l2.703125 0q-0.0625 -0.609375 -0.3125 -0.90625q-0.390625 -0.46875 -1.015625 -0.46875q-0.5625 0 -0.953125 0.375q-0.375 0.375 -0.421875 1.0z" fill-rule="nonzero"/><path fill="#000000" d="m196.53835 132.97417l-0.765625 0l0 -6.6718674l0.828125 0l0 2.3749924q0.515625 -0.65625 1.3125 -0.65625q0.453125 0 0.84375 0.1875q0.40625 0.171875 0.65625 0.5q0.265625 0.328125 0.40625 0.796875q0.15625 0.453125 0.15625 0.984375q0 1.234375 -0.625 1.921875q-0.609375 0.671875 -1.46875 0.671875q-0.859375 0 -1.34375 -0.71875l0 0.609375zm-0.015625 -2.453125q0 0.875 0.234375 1.25q0.390625 0.640625 1.046875 0.640625q0.546875 0 0.9375 -0.46875q0.390625 -0.46875 0.390625 -1.390625q0 -0.953125 -0.375 -1.390625q-0.375 -0.453125 -0.90625 -0.453125q-0.546875 0 -0.9375 0.46875q-0.390625 0.453125 -0.390625 1.34375zm4.406616 4.3125l-0.09375 -0.765625q0.265625 0.078125 0.46875 0.078125q0.28125 0 0.4375 -0.09375q0.171875 -0.09375 0.265625 -0.265625q0.078125 -0.109375 0.25 -0.609375q0.03125 -0.0625 0.078125 -0.1875l-1.828125 -4.859375l0.875 0l1.015625 2.8125q0.1875 0.53125 0.34375 1.109375q0.140625 -0.5625 0.34375 -1.09375l1.03125 -2.828125l0.8125 0l-1.84375 4.921875q-0.28125 0.796875 -0.453125 1.09375q-0.21875 0.40625 -0.5 0.59375q-0.28125 0.203125 -0.671875 0.203125q-0.234375 0 -0.53125 -0.109375zm6.4921875 -2.59375l0.109375 0.71875q-0.34375 0.078125 -0.609375 0.078125q-0.453125 0 -0.703125 -0.140625q-0.234375 -0.140625 -0.34375 -0.359375q-0.09375 -0.234375 -0.09375 -0.984375l0 -2.78125l-0.609375 0l0 -0.640625l0.609375 0l0 -1.1874924l0.8125 -0.5l0 1.6874924l0.828125 0l0 0.640625l-0.828125 0l0 2.828125q0 0.359375 0.046875 0.46875q0.046875 0.09375 0.140625 0.15625q0.09375 0.046875 0.28125 0.046875q0.140625 0 0.359375 -0.03125zm4.1072845 -0.828125l0.84375 0.109375q-0.1875 0.75 -0.734375 1.15625q-0.546875 0.40625 -1.390625 0.40625q-1.0625 0 -1.6875 -0.65625q-0.609375 -0.65625 -0.609375 -1.828125q0 -1.21875 0.625 -1.890625q0.625 -0.6875 1.625 -0.6875q0.984375 0 1.59375 0.671875q0.609375 0.65625 0.609375 1.859375q0 0.0625 0 0.21875l-3.609375 0q0.046875 0.796875 0.453125 1.21875q0.40625 0.421875 1.015625 0.421875q0.453125 0 0.765625 -0.234375q0.3125 -0.234375 0.5 -0.765625zm-2.6875 -1.328125l2.703125 0q-0.0625 -0.609375 -0.3125 -0.90625q-0.390625 -0.46875 -1.015625 -0.46875q-0.5625 0 -0.953125 0.375q-0.375 0.375 -0.421875 1.0z" fill-rule="nonzero"/><path fill="#000000" d="m251.39923 132.97417l-0.765625 0l0 -6.6718674l0.828125 0l0 2.3749924q0.515625 -0.65625 1.3125 -0.65625q0.453125 0 0.84375 0.1875q0.40625 0.171875 0.65625 0.5q0.265625 0.328125 0.40625 0.796875q0.15625 0.453125 0.15625 0.984375q0 1.234375 -0.625 1.921875q-0.609375 0.671875 -1.46875 0.671875q-0.859375 0 -1.34375 -0.71875l0 0.609375zm-0.015625 -2.453125q0 0.875 0.234375 1.25q0.390625 0.640625 1.046875 0.640625q0.546875 0 0.9375 -0.46875q0.390625 -0.46875 0.390625 -1.390625q0 -0.953125 -0.375 -1.390625q-0.375 -0.453125 -0.90625 -0.453125q-0.546875 0 -0.9375 0.46875q-0.390625 0.453125 -0.390625 1.34375zm4.406616 4.3125l-0.09375 -0.765625q0.265625 0.078125 0.46875 0.078125q0.28125 0 0.4375 -0.09375q0.171875 -0.09375 0.265625 -0.265625q0.078125 -0.109375 0.25 -0.609375q0.03125 -0.0625 0.078125 -0.1875l-1.828125 -4.859375l0.875 0l1.015625 2.8125q0.1875 0.53125 0.34375 1.109375q0.140625 -0.5625 0.34375 -1.09375l1.03125 -2.828125l0.8125 0l-1.84375 4.921875q-0.28125 0.796875 -0.453125 1.09375q-0.21875 0.40625 -0.5 0.59375q-0.28125 0.203125 -0.671875 0.203125q-0.234375 0 -0.53125 -0.109375zm6.4921875 -2.59375l0.109375 0.71875q-0.34375 0.078125 -0.609375 0.078125q-0.453125 0 -0.703125 -0.140625q-0.234375 -0.140625 -0.34375 -0.359375q-0.09375 -0.234375 -0.09375 -0.984375l0 -2.78125l-0.609375 0l0 -0.640625l0.609375 0l0 -1.1874924l0.8125 -0.5l0 1.6874924l0.828125 0l0 0.640625l-0.828125 0l0 2.828125q0 0.359375 0.046875 0.46875q0.046875 0.09375 0.140625 0.15625q0.09375 0.046875 0.28125 0.046875q0.140625 0 0.359375 -0.03125zm4.1072693 -0.828125l0.84375 0.109375q-0.1875 0.75 -0.734375 1.15625q-0.546875 0.40625 -1.390625 0.40625q-1.0625 0 -1.6875 -0.65625q-0.609375 -0.65625 -0.609375 -1.828125q0 -1.21875 0.625 -1.890625q0.625 -0.6875 1.625 -0.6875q0.984375 0 1.59375 0.671875q0.609375 0.65625 0.609375 1.859375q0 0.0625 0 0.21875l-3.609375 0q0.046875 0.796875 0.453125 1.21875q0.40625 0.421875 1.015625 0.421875q0.453125 0 0.765625 -0.234375q0.3125 -0.234375 0.5 -0.765625zm-2.6875 -1.328125l2.703125 0q-0.0625 -0.609375 -0.3125 -0.90625q-0.390625 -0.46875 -1.015625 -0.46875q-0.5625 0 -0.953125 0.375q-0.375 0.375 -0.421875 1.0z" fill-rule="nonzero"/><path fill="#000000" d="m306.26013 132.97417l-0.765625 0l0 -6.6718674l0.828125 0l0 2.3749924q0.515625 -0.65625 1.3125 -0.65625q0.453125 0 0.84375 0.1875q0.40625 0.171875 0.65625 0.5q0.265625 0.328125 0.40625 0.796875q0.15625 0.453125 0.15625 0.984375q0 1.234375 -0.625 1.921875q-0.609375 0.671875 -1.46875 0.671875q-0.859375 0 -1.34375 -0.71875l0 0.609375zm-0.015625 -2.453125q0 0.875 0.234375 1.25q0.390625 0.640625 1.046875 0.640625q0.546875 0 0.9375 -0.46875q0.390625 -0.46875 0.390625 -1.390625q0 -0.953125 -0.375 -1.390625q-0.375 -0.453125 -0.90625 -0.453125q-0.546875 0 -0.9375 0.46875q-0.390625 0.453125 -0.390625 1.34375zm4.406616 4.3125l-0.09375 -0.765625q0.265625 0.078125 0.46875 0.078125q0.28125 0 0.4375 -0.09375q0.171875 -0.09375 0.265625 -0.265625q0.078125 -0.109375 0.25 -0.609375q0.03125 -0.0625 0.078125 -0.1875l-1.828125 -4.859375l0.875 0l1.015625 2.8125q0.1875 0.53125 0.34375 1.109375q0.140625 -0.5625 0.34375 -1.09375l1.03125 -2.828125l0.8125 0l-1.84375 4.921875q-0.28125 0.796875 -0.453125 1.09375q-0.21875 0.40625 -0.5 0.59375q-0.28125 0.203125 -0.671875 0.203125q-0.234375 0 -0.53125 -0.109375zm6.4921875 -2.59375l0.109375 0.71875q-0.34375 0.078125 -0.609375 0.078125q-0.453125 0 -0.703125 -0.140625q-0.234375 -0.140625 -0.34375 -0.359375q-0.09375 -0.234375 -0.09375 -0.984375l0 -2.78125l-0.609375 0l0 -0.640625l0.609375 0l0 -1.1874924l0.8125 -0.5l0 1.6874924l0.828125 0l0 0.640625l-0.828125 0l0 2.828125q0 0.359375 0.046875 0.46875q0.046875 0.09375 0.140625 0.15625q0.09375 0.046875 0.28125 0.046875q0.140625 0 0.359375 -0.03125zm4.1072693 -0.828125l0.84375 0.109375q-0.1875 0.75 -0.734375 1.15625q-0.546875 0.40625 -1.390625 0.40625q-1.0625 0 -1.6875 -0.65625q-0.609375 -0.65625 -0.609375 -1.828125q0 -1.21875 0.625 -1.890625q0.625 -0.6875 1.625 -0.6875q0.984375 0 1.59375 0.671875q0.609375 0.65625 0.609375 1.859375q0 0.0625 0 0.21875l-3.609375 0q0.046875 0.796875 0.453125 1.21875q0.40625 0.421875 1.015625 0.421875q0.453125 0 0.765625 -0.234375q0.3125 -0.234375 0.5 -0.765625zm-2.6875 -1.328125l2.703125 0q-0.0625 -0.609375 -0.3125 -0.90625q-0.390625 -0.46875 -1.015625 -0.46875q-0.5625 0 -0.953125 0.375q-0.375 0.375 -0.421875 1.0z" fill-rule="nonzero"/><path fill="#000000" d="m361.121 132.97417l-0.765625 0l0 -6.6718674l0.828125 0l0 2.3749924q0.515625 -0.65625 1.3125 -0.65625q0.453125 0 0.84375 0.1875q0.40625 0.171875 0.65625 0.5q0.265625 0.328125 0.40625 0.796875q0.15625 0.453125 0.15625 0.984375q0 1.234375 -0.625 1.921875q-0.609375 0.671875 -1.46875 0.671875q-0.859375 0 -1.34375 -0.71875l0 0.609375zm-0.015625 -2.453125q0 0.875 0.234375 1.25q0.390625 0.640625 1.046875 0.640625q0.546875 0 0.9375 -0.46875q0.390625 -0.46875 0.390625 -1.390625q0 -0.953125 -0.375 -1.390625q-0.375 -0.453125 -0.90625 -0.453125q-0.546875 0 -0.9375 0.46875q-0.390625 0.453125 -0.390625 1.34375zm4.406616 4.3125l-0.09375 -0.765625q0.265625 0.078125 0.46875 0.078125q0.28125 0 0.4375 -0.09375q0.171875 -0.09375 0.265625 -0.265625q0.078125 -0.109375 0.25 -0.609375q0.03125 -0.0625 0.078125 -0.1875l-1.828125 -4.859375l0.875 0l1.015625 2.8125q0.1875 0.53125 0.34375 1.109375q0.140625 -0.5625 0.34375 -1.09375l1.03125 -2.828125l0.8125 0l-1.84375 4.921875q-0.28125 0.796875 -0.453125 1.09375q-0.21875 0.40625 -0.5 0.59375q-0.28125 0.203125 -0.671875 0.203125q-0.234375 0 -0.53125 -0.109375zm6.4921875 -2.59375l0.109375 0.71875q-0.34375 0.078125 -0.609375 0.078125q-0.453125 0 -0.703125 -0.140625q-0.234375 -0.140625 -0.34375 -0.359375q-0.09375 -0.234375 -0.09375 -0.984375l0 -2.78125l-0.609375 0l0 -0.640625l0.609375 0l0 -1.1874924l0.8125 -0.5l0 1.6874924l0.828125 0l0 0.640625l-0.828125 0l0 2.828125q0 0.359375 0.046875 0.46875q0.046875 0.09375 0.140625 0.15625q0.09375 0.046875 0.28125 0.046875q0.140625 0 0.359375 -0.03125zm4.1073 -0.828125l0.84375 0.109375q-0.1875 0.75 -0.734375 1.15625q-0.546875 0.40625 -1.390625 0.40625q-1.0625 0 -1.6875 -0.65625q-0.609375 -0.65625 -0.609375 -1.828125q0 -1.21875 0.625 -1.890625q0.625 -0.6875 1.625 -0.6875q0.984375 0 1.59375 0.671875q0.609375 0.65625 0.609375 1.859375q0 0.0625 0 0.21875l-3.609375 0q0.046875 0.796875 0.453125 1.21875q0.40625 0.421875 1.015625 0.421875q0.453125 0 0.765625 -0.234375q0.3125 -0.234375 0.5 -0.765625zm-2.6875 -1.328125l2.703125 0q-0.0625 -0.609375 -0.3125 -0.90625q-0.390625 -0.46875 -1.015625 -0.46875q-0.5625 0 -0.953125 0.375q-0.375 0.375 -0.421875 1.0z" fill-rule="nonzero"/><path fill="#000000" d="m32.236904 154.60376q-0.515625 -0.1875 -0.765625 -0.53125q-0.25 -0.34375 -0.25 -0.828125q0 -0.734375 0.515625 -1.21875q0.53125 -0.5 1.40625 -0.5q0.875 0 1.40625 0.515625q0.53125 0.5 0.53125 1.234375q0 0.453125 -0.25 0.796875q-0.234375 0.34375 -0.734375 0.53125q0.625 0.203125 0.9375 0.65625q0.328125 0.4375 0.328125 1.0625q0 0.859375 -0.609375 1.4375q-0.609375 0.578125 -1.59375 0.578125q-0.984375 0 -1.59375 -0.578125q-0.609375 -0.59375 -0.609375 -1.46875q0 -0.640625 0.328125 -1.078125q0.328125 -0.453125 0.953125 -0.609375zm-0.171875 -1.390625q0 0.484375 0.296875 0.78125q0.3125 0.296875 0.796875 0.296875q0.484375 0 0.78125 -0.296875q0.296875 -0.296875 0.296875 -0.734375q0 -0.453125 -0.3125 -0.75q-0.3125 -0.3125 -0.765625 -0.3125q-0.46875 0 -0.78125 0.3125q-0.3125 0.296875 -0.3125 0.703125zm-0.265625 3.09375q0 0.34375 0.15625 0.671875q0.171875 0.328125 0.5 0.515625q0.328125 0.171875 0.71875 0.171875q0.578125 0 0.953125 -0.375q0.390625 -0.375 0.390625 -0.96875q0 -0.578125 -0.390625 -0.96875q-0.390625 -0.390625 -0.984375 -0.390625q-0.578125 0 -0.96875 0.390625q-0.375 0.375 -0.375 0.953125zm7.9357758 1.921875l-0.765625 0l0 -6.671875l0.828125 0l0 2.375q0.515625 -0.65625 1.3125 -0.65625q0.453125 0 0.84375 0.1875q0.40625 0.171875 0.65625 0.5q0.265625 0.328125 0.40625 0.796875q0.15625 0.453125 0.15625 0.984375q0 1.234375 -0.625 1.921875q-0.609375 0.671875 -1.46875 0.671875q-0.859375 0 -1.34375 -0.71875l0 0.609375zm-0.015625 -2.453125q0 0.875 0.234375 1.25q0.390625 0.640625 1.046875 0.640625q0.546875 0 0.9375 -0.46875q0.390625 -0.46875 0.390625 -1.390625q0 -0.953125 -0.375 -1.390625q-0.375 -0.453125 -0.90625 -0.453125q-0.546875 0 -0.9375 0.46875q-0.390625 0.453125 -0.390625 1.34375zm4.453491 -3.28125l0 -0.9375l0.8125 0l0 0.9375l-0.8125 0zm0 5.734375l0 -4.84375l0.8125 0l0 4.84375l-0.8125 0zm3.8536682 -0.734375l0.109375 0.71875q-0.34375 0.078125 -0.609375 0.078125q-0.453125 0 -0.703125 -0.140625q-0.234375 -0.140625 -0.34375 -0.359375q-0.09375 -0.234375 -0.09375 -0.984375l0 -2.78125l-0.609375 0l0 -0.640625l0.609375 0l0 -1.1875l0.8125 -0.5l0 1.6875l0.828125 0l0 0.640625l-0.828125 0l0 2.828125q0 0.359375 0.046875 0.46875q0.046875 0.09375 0.140625 0.15625q0.09375 0.046875 0.28125 0.046875q0.140625 0 0.359375 -0.03125z" fill-rule="nonzero"/><path fill="#000000" d="m87.09779 154.60376q-0.515625 -0.1875 -0.765625 -0.53125q-0.25 -0.34375 -0.25 -0.828125q0 -0.734375 0.515625 -1.21875q0.53125 -0.5 1.40625 -0.5q0.875 0 1.40625 0.515625q0.53125 0.5 0.53125 1.234375q0 0.453125 -0.25 0.796875q-0.234375 0.34375 -0.734375 0.53125q0.625 0.203125 0.9375 0.65625q0.328125 0.4375 0.328125 1.0625q0 0.859375 -0.609375 1.4375q-0.609375 0.578125 -1.59375 0.578125q-0.984375 0 -1.59375 -0.578125q-0.609375 -0.59375 -0.609375 -1.46875q0 -0.640625 0.328125 -1.078125q0.328125 -0.453125 0.953125 -0.609375zm-0.171875 -1.390625q0 0.484375 0.296875 0.78125q0.3125 0.296875 0.796875 0.296875q0.484375 0 0.78125 -0.296875q0.296875 -0.296875 0.296875 -0.734375q0 -0.453125 -0.3125 -0.75q-0.3125 -0.3125 -0.765625 -0.3125q-0.46875 0 -0.78125 0.3125q-0.3125 0.296875 -0.3125 0.703125zm-0.265625 3.09375q0 0.34375 0.15625 0.671875q0.171875 0.328125 0.5 0.515625q0.328125 0.171875 0.71875 0.171875q0.578125 0 0.953125 -0.375q0.390625 -0.375 0.390625 -0.96875q0 -0.578125 -0.390625 -0.96875q-0.390625 -0.390625 -0.984375 -0.390625q-0.578125 0 -0.96875 0.390625q-0.375 0.375 -0.375 0.953125zm7.9357758 1.921875l-0.765625 0l0 -6.671875l0.828125 0l0 2.375q0.515625 -0.65625 1.3125 -0.65625q0.453125 0 0.84375 0.1875q0.40625 0.171875 0.65625 0.5q0.265625 0.328125 0.40625 0.796875q0.15625 0.453125 0.15625 0.984375q0 1.234375 -0.625 1.921875q-0.609375 0.671875 -1.46875 0.671875q-0.859375 0 -1.34375 -0.71875l0 0.609375zm-0.015625 -2.453125q0 0.875 0.234375 1.25q0.390625 0.640625 1.046875 0.640625q0.546875 0 0.9375 -0.46875q0.390625 -0.46875 0.390625 -1.390625q0 -0.953125 -0.375 -1.390625q-0.375 -0.453125 -0.90625 -0.453125q-0.546875 0 -0.9375 0.46875q-0.390625 0.453125 -0.390625 1.34375zm4.453491 -3.28125l0 -0.9375l0.8125 0l0 0.9375l-0.8125 0zm0 5.734375l0 -4.84375l0.8125 0l0 4.84375l-0.8125 0zm3.8536682 -0.734375l0.109375 0.71875q-0.34375 0.078125 -0.609375 0.078125q-0.453125 0 -0.703125 -0.140625q-0.234375 -0.140625 -0.34375 -0.359375q-0.09375 -0.234375 -0.09375 -0.984375l0 -2.78125l-0.609375 0l0 -0.640625l0.609375 0l0 -1.1875l0.8125 -0.5l0 1.6875l0.828125 0l0 0.640625l-0.828125 0l0 2.828125q0 0.359375 0.046875 0.46875q0.046875 0.09375 0.140625 0.15625q0.09375 0.046875 0.28125 0.046875q0.140625 0 0.359375 -0.03125z" fill-rule="nonzero"/><path fill="#000000" d="m141.9587 154.60376q-0.515625 -0.1875 -0.765625 -0.53125q-0.25 -0.34375 -0.25 -0.828125q0 -0.734375 0.515625 -1.21875q0.53125 -0.5 1.40625 -0.5q0.875 0 1.40625 0.515625q0.53125 0.5 0.53125 1.234375q0 0.453125 -0.25 0.796875q-0.234375 0.34375 -0.734375 0.53125q0.625 0.203125 0.9375 0.65625q0.328125 0.4375 0.328125 1.0625q0 0.859375 -0.609375 1.4375q-0.609375 0.578125 -1.59375 0.578125q-0.984375 0 -1.59375 -0.578125q-0.609375 -0.59375 -0.609375 -1.46875q0 -0.640625 0.328125 -1.078125q0.328125 -0.453125 0.953125 -0.609375zm-0.171875 -1.390625q0 0.484375 0.296875 0.78125q0.3125 0.296875 0.796875 0.296875q0.484375 0 0.78125 -0.296875q0.296875 -0.296875 0.296875 -0.734375q0 -0.453125 -0.3125 -0.75q-0.3125 -0.3125 -0.765625 -0.3125q-0.46875 0 -0.78125 0.3125q-0.3125 0.296875 -0.3125 0.703125zm-0.265625 3.09375q0 0.34375 0.15625 0.671875q0.171875 0.328125 0.5 0.515625q0.328125 0.171875 0.71875 0.171875q0.578125 0 0.953125 -0.375q0.390625 -0.375 0.390625 -0.96875q0 -0.578125 -0.390625 -0.96875q-0.390625 -0.390625 -0.984375 -0.390625q-0.578125 0 -0.96875 0.390625q-0.375 0.375 -0.375 0.953125zm7.9357758 1.921875l-0.765625 0l0 -6.671875l0.828125 0l0 2.375q0.515625 -0.65625 1.3125 -0.65625q0.453125 0 0.84375 0.1875q0.40625 0.171875 0.65625 0.5q0.265625 0.328125 0.40625 0.796875q0.15625 0.453125 0.15625 0.984375q0 1.234375 -0.625 1.921875q-0.609375 0.671875 -1.46875 0.671875q-0.859375 0 -1.34375 -0.71875l0 0.609375zm-0.015625 -2.453125q0 0.875 0.234375 1.25q0.390625 0.640625 1.046875 0.640625q0.546875 0 0.9375 -0.46875q0.390625 -0.46875 0.390625 -1.390625q0 -0.953125 -0.375 -1.390625q-0.375 -0.453125 -0.90625 -0.453125q-0.546875 0 -0.9375 0.46875q-0.390625 0.453125 -0.390625 1.34375zm4.453491 -3.28125l0 -0.9375l0.8125 0l0 0.9375l-0.8125 0zm0 5.734375l0 -4.84375l0.8125 0l0 4.84375l-0.8125 0zm3.8536682 -0.734375l0.109375 0.71875q-0.34375 0.078125 -0.609375 0.078125q-0.453125 0 -0.703125 -0.140625q-0.234375 -0.140625 -0.34375 -0.359375q-0.09375 -0.234375 -0.09375 -0.984375l0 -2.78125l-0.609375 0l0 -0.640625l0.609375 0l0 -1.1875l0.8125 -0.5l0 1.6875l0.828125 0l0 0.640625l-0.828125 0l0 2.828125q0 0.359375 0.046875 0.46875q0.046875 0.09375 0.140625 0.15625q0.09375 0.046875 0.28125 0.046875q0.140625 0 0.359375 -0.03125z" fill-rule="nonzero"/><path fill="#000000" d="m196.81958 154.60376q-0.515625 -0.1875 -0.765625 -0.53125q-0.25 -0.34375 -0.25 -0.828125q0 -0.734375 0.515625 -1.21875q0.53125 -0.5 1.40625 -0.5q0.875 0 1.40625 0.515625q0.53125 0.5 0.53125 1.234375q0 0.453125 -0.25 0.796875q-0.234375 0.34375 -0.734375 0.53125q0.625 0.203125 0.9375 0.65625q0.328125 0.4375 0.328125 1.0625q0 0.859375 -0.609375 1.4375q-0.609375 0.578125 -1.59375 0.578125q-0.984375 0 -1.59375 -0.578125q-0.609375 -0.59375 -0.609375 -1.46875q0 -0.640625 0.328125 -1.078125q0.328125 -0.453125 0.953125 -0.609375zm-0.171875 -1.390625q0 0.484375 0.296875 0.78125q0.3125 0.296875 0.796875 0.296875q0.484375 0 0.78125 -0.296875q0.296875 -0.296875 0.296875 -0.734375q0 -0.453125 -0.3125 -0.75q-0.3125 -0.3125 -0.765625 -0.3125q-0.46875 0 -0.78125 0.3125q-0.3125 0.296875 -0.3125 0.703125zm-0.265625 3.09375q0 0.34375 0.15625 0.671875q0.171875 0.328125 0.5 0.515625q0.328125 0.171875 0.71875 0.171875q0.578125 0 0.953125 -0.375q0.390625 -0.375 0.390625 -0.96875q0 -0.578125 -0.390625 -0.96875q-0.390625 -0.390625 -0.984375 -0.390625q-0.578125 0 -0.96875 0.390625q-0.375 0.375 -0.375 0.953125zm7.9357758 1.921875l-0.765625 0l0 -6.671875l0.828125 0l0 2.375q0.515625 -0.65625 1.3125 -0.65625q0.453125 0 0.84375 0.1875q0.40625 0.171875 0.65625 0.5q0.265625 0.328125 0.40625 0.796875q0.15625 0.453125 0.15625 0.984375q0 1.234375 -0.625 1.921875q-0.609375 0.671875 -1.46875 0.671875q-0.859375 0 -1.34375 -0.71875l0 0.609375zm-0.015625 -2.453125q0 0.875 0.234375 1.25q0.390625 0.640625 1.046875 0.640625q0.546875 0 0.9375 -0.46875q0.390625 -0.46875 0.390625 -1.390625q0 -0.953125 -0.375 -1.390625q-0.375 -0.453125 -0.90625 -0.453125q-0.546875 0 -0.9375 0.46875q-0.390625 0.453125 -0.390625 1.34375zm4.453491 -3.28125l0 -0.9375l0.8125 0l0 0.9375l-0.8125 0zm0 5.734375l0 -4.84375l0.8125 0l0 4.84375l-0.8125 0zm3.8536682 -0.734375l0.109375 0.71875q-0.34375 0.078125 -0.609375 0.078125q-0.453125 0 -0.703125 -0.140625q-0.234375 -0.140625 -0.34375 -0.359375q-0.09375 -0.234375 -0.09375 -0.984375l0 -2.78125l-0.609375 0l0 -0.640625l0.609375 0l0 -1.1875l0.8125 -0.5l0 1.6875l0.828125 0l0 0.640625l-0.828125 0l0 2.828125q0 0.359375 0.046875 0.46875q0.046875 0.09375 0.140625 0.15625q0.09375 0.046875 0.28125 0.046875q0.140625 0 0.359375 -0.03125z" fill-rule="nonzero"/><path fill="#000000" d="m251.68047 154.60376q-0.515625 -0.1875 -0.765625 -0.53125q-0.25 -0.34375 -0.25 -0.828125q0 -0.734375 0.515625 -1.21875q0.53125 -0.5 1.40625 -0.5q0.875 0 1.40625 0.515625q0.53125 0.5 0.53125 1.234375q0 0.453125 -0.25 0.796875q-0.234375 0.34375 -0.734375 0.53125q0.625 0.203125 0.9375 0.65625q0.328125 0.4375 0.328125 1.0625q0 0.859375 -0.609375 1.4375q-0.609375 0.578125 -1.59375 0.578125q-0.984375 0 -1.59375 -0.578125q-0.609375 -0.59375 -0.609375 -1.46875q0 -0.640625 0.328125 -1.078125q0.328125 -0.453125 0.953125 -0.609375zm-0.171875 -1.390625q0 0.484375 0.296875 0.78125q0.3125 0.296875 0.796875 0.296875q0.484375 0 0.78125 -0.296875q0.296875 -0.296875 0.296875 -0.734375q0 -0.453125 -0.3125 -0.75q-0.3125 -0.3125 -0.765625 -0.3125q-0.46875 0 -0.78125 0.3125q-0.3125 0.296875 -0.3125 0.703125zm-0.265625 3.09375q0 0.34375 0.15625 0.671875q0.171875 0.328125 0.5 0.515625q0.328125 0.171875 0.71875 0.171875q0.578125 0 0.953125 -0.375q0.390625 -0.375 0.390625 -0.96875q0 -0.578125 -0.390625 -0.96875q-0.390625 -0.390625 -0.984375 -0.390625q-0.578125 0 -0.96875 0.390625q-0.375 0.375 -0.375 0.953125zm7.9357758 1.921875l-0.765625 0l0 -6.671875l0.828125 0l0 2.375q0.515625 -0.65625 1.3125 -0.65625q0.453125 0 0.84375 0.1875q0.40625 0.171875 0.65625 0.5q0.265625 0.328125 0.40625 0.796875q0.15625 0.453125 0.15625 0.984375q0 1.234375 -0.625 1.921875q-0.609375 0.671875 -1.46875 0.671875q-0.859375 0 -1.34375 -0.71875l0 0.609375zm-0.015625 -2.453125q0 0.875 0.234375 1.25q0.390625 0.640625 1.046875 0.640625q0.546875 0 0.9375 -0.46875q0.390625 -0.46875 0.390625 -1.390625q0 -0.953125 -0.375 -1.390625q-0.375 -0.453125 -0.90625 -0.453125q-0.546875 0 -0.9375 0.46875q-0.390625 0.453125 -0.390625 1.34375zm4.453491 -3.28125l0 -0.9375l0.8125 0l0 0.9375l-0.8125 0zm0 5.734375l0 -4.84375l0.8125 0l0 4.84375l-0.8125 0zm3.8536682 -0.734375l0.109375 0.71875q-0.34375 0.078125 -0.609375 0.078125q-0.453125 0 -0.703125 -0.140625q-0.234375 -0.140625 -0.34375 -0.359375q-0.09375 -0.234375 -0.09375 -0.984375l0 -2.78125l-0.609375 0l0 -0.640625l0.609375 0l0 -1.1875l0.8125 -0.5l0 1.6875l0.828125 0l0 0.640625l-0.828125 0l0 2.828125q0 0.359375 0.046875 0.46875q0.046875 0.09375 0.140625 0.15625q0.09375 0.046875 0.28125 0.046875q0.140625 0 0.359375 -0.03125z" fill-rule="nonzero"/><path fill="#000000" d="m306.54135 154.60376q-0.515625 -0.1875 -0.765625 -0.53125q-0.25 -0.34375 -0.25 -0.828125q0 -0.734375 0.515625 -1.21875q0.53125 -0.5 1.40625 -0.5q0.875 0 1.40625 0.515625q0.53125 0.5 0.53125 1.234375q0 0.453125 -0.25 0.796875q-0.234375 0.34375 -0.734375 0.53125q0.625 0.203125 0.9375 0.65625q0.328125 0.4375 0.328125 1.0625q0 0.859375 -0.609375 1.4375q-0.609375 0.578125 -1.59375 0.578125q-0.984375 0 -1.59375 -0.578125q-0.609375 -0.59375 -0.609375 -1.46875q0 -0.640625 0.328125 -1.078125q0.328125 -0.453125 0.953125 -0.609375zm-0.171875 -1.390625q0 0.484375 0.296875 0.78125q0.3125 0.296875 0.796875 0.296875q0.484375 0 0.78125 -0.296875q0.296875 -0.296875 0.296875 -0.734375q0 -0.453125 -0.3125 -0.75q-0.3125 -0.3125 -0.765625 -0.3125q-0.46875 0 -0.78125 0.3125q-0.3125 0.296875 -0.3125 0.703125zm-0.265625 3.09375q0 0.34375 0.15625 0.671875q0.171875 0.328125 0.5 0.515625q0.328125 0.171875 0.71875 0.171875q0.578125 0 0.953125 -0.375q0.390625 -0.375 0.390625 -0.96875q0 -0.578125 -0.390625 -0.96875q-0.390625 -0.390625 -0.984375 -0.390625q-0.578125 0 -0.96875 0.390625q-0.375 0.375 -0.375 0.953125zm7.935791 1.921875l-0.765625 0l0 -6.671875l0.828125 0l0 2.375q0.515625 -0.65625 1.3125 -0.65625q0.453125 0 0.84375 0.1875q0.40625 0.171875 0.65625 0.5q0.265625 0.328125 0.40625 0.796875q0.15625 0.453125 0.15625 0.984375q0 1.234375 -0.625 1.921875q-0.609375 0.671875 -1.46875 0.671875q-0.859375 0 -1.34375 -0.71875l0 0.609375zm-0.015625 -2.453125q0 0.875 0.234375 1.25q0.390625 0.640625 1.046875 0.640625q0.546875 0 0.9375 -0.46875q0.390625 -0.46875 0.390625 -1.390625q0 -0.953125 -0.375 -1.390625q-0.375 -0.453125 -0.90625 -0.453125q-0.546875 0 -0.9375 0.46875q-0.390625 0.453125 -0.390625 1.34375zm4.453491 -3.28125l0 -0.9375l0.8125 0l0 0.9375l-0.8125 0zm0 5.734375l0 -4.84375l0.8125 0l0 4.84375l-0.8125 0zm3.8536682 -0.734375l0.109375 0.71875q-0.34375 0.078125 -0.609375 0.078125q-0.453125 0 -0.703125 -0.140625q-0.234375 -0.140625 -0.34375 -0.359375q-0.09375 -0.234375 -0.09375 -0.984375l0 -2.78125l-0.609375 0l0 -0.640625l0.609375 0l0 -1.1875l0.8125 -0.5l0 1.6875l0.828125 0l0 0.640625l-0.828125 0l0 2.828125q0 0.359375 0.046875 0.46875q0.046875 0.09375 0.140625 0.15625q0.09375 0.046875 0.28125 0.046875q0.140625 0 0.359375 -0.03125z" fill-rule="nonzero"/><path fill="#000000" d="m361.40225 154.60376q-0.515625 -0.1875 -0.765625 -0.53125q-0.25 -0.34375 -0.25 -0.828125q0 -0.734375 0.515625 -1.21875q0.53125 -0.5 1.40625 -0.5q0.875 0 1.40625 0.515625q0.53125 0.5 0.53125 1.234375q0 0.453125 -0.25 0.796875q-0.234375 0.34375 -0.734375 0.53125q0.625 0.203125 0.9375 0.65625q0.328125 0.4375 0.328125 1.0625q0 0.859375 -0.609375 1.4375q-0.609375 0.578125 -1.59375 0.578125q-0.984375 0 -1.59375 -0.578125q-0.609375 -0.59375 -0.609375 -1.46875q0 -0.640625 0.328125 -1.078125q0.328125 -0.453125 0.953125 -0.609375zm-0.171875 -1.390625q0 0.484375 0.296875 0.78125q0.3125 0.296875 0.796875 0.296875q0.484375 0 0.78125 -0.296875q0.296875 -0.296875 0.296875 -0.734375q0 -0.453125 -0.3125 -0.75q-0.3125 -0.3125 -0.765625 -0.3125q-0.46875 0 -0.78125 0.3125q-0.3125 0.296875 -0.3125 0.703125zm-0.265625 3.09375q0 0.34375 0.15625 0.671875q0.171875 0.328125 0.5 0.515625q0.328125 0.171875 0.71875 0.171875q0.578125 0 0.953125 -0.375q0.390625 -0.375 0.390625 -0.96875q0 -0.578125 -0.390625 -0.96875q-0.390625 -0.390625 -0.984375 -0.390625q-0.578125 0 -0.96875 0.390625q-0.375 0.375 -0.375 0.953125zm7.935791 1.921875l-0.765625 0l0 -6.671875l0.828125 0l0 2.375q0.515625 -0.65625 1.3125 -0.65625q0.453125 0 0.84375 0.1875q0.40625 0.171875 0.65625 0.5q0.265625 0.328125 0.40625 0.796875q0.15625 0.453125 0.15625 0.984375q0 1.234375 -0.625 1.921875q-0.609375 0.671875 -1.46875 0.671875q-0.859375 0 -1.34375 -0.71875l0 0.609375zm-0.015625 -2.453125q0 0.875 0.234375 1.25q0.390625 0.640625 1.046875 0.640625q0.546875 0 0.9375 -0.46875q0.390625 -0.46875 0.390625 -1.390625q0 -0.953125 -0.375 -1.390625q-0.375 -0.453125 -0.90625 -0.453125q-0.546875 0 -0.9375 0.46875q-0.390625 0.453125 -0.390625 1.34375zm4.453491 -3.28125l0 -0.9375l0.8125 0l0 0.9375l-0.8125 0zm0 5.734375l0 -4.84375l0.8125 0l0 4.84375l-0.8125 0zm3.8536682 -0.734375l0.109375 0.71875q-0.34375 0.078125 -0.609375 0.078125q-0.453125 0 -0.703125 -0.140625q-0.234375 -0.140625 -0.34375 -0.359375q-0.09375 -0.234375 -0.09375 -0.984375l0 -2.78125l-0.609375 0l0 -0.640625l0.609375 0l0 -1.1875l0.8125 -0.5l0 1.6875l0.828125 0l0 0.640625l-0.828125 0l0 2.828125q0 0.359375 0.046875 0.46875q0.046875 0.09375 0.140625 0.15625q0.09375 0.046875 0.28125 0.046875q0.140625 0 0.359375 -0.03125z" fill-rule="nonzero"/><path fill="#000000" d="m20.817844 183.48335l-0.8125 0l0 -5.21875q-0.296875 0.28125 -0.78125 0.5625q-0.484375 0.28125 -0.859375 0.421875l0 -0.796875q0.6875 -0.328125 1.203125 -0.78125q0.515625 -0.453125 0.734375 -0.890625l0.515625 0l0 6.703125zm2.1097412 -3.296875q0 -1.1875 0.234375 -1.90625q0.25 -0.71875 0.71875 -1.109375q0.484375 -0.390625 1.21875 -0.390625q0.546875 0 0.9375 0.21875q0.40625 0.21875 0.671875 0.625q0.265625 0.40625 0.40625 1.0q0.15625 0.578125 0.15625 1.5625q0 1.171875 -0.234375 1.90625q-0.234375 0.71875 -0.71875 1.109375q-0.484375 0.390625 -1.21875 0.390625q-0.96875 0 -1.515625 -0.6875q-0.65625 -0.828125 -0.65625 -2.71875zm0.84375 0q0 1.640625 0.375 2.1875q0.390625 0.546875 0.953125 0.546875q0.5625 0 0.953125 -0.546875q0.390625 -0.546875 0.390625 -2.1875q0 -1.640625 -0.390625 -2.1875q-0.390625 -0.546875 -0.953125 -0.546875q-0.578125 0 -0.90625 0.484375q-0.421875 0.609375 -0.421875 2.25zm7.422241 3.296875l-0.8125 0l0 -5.21875q-0.296875 0.28125 -0.78125 0.5625q-0.484375 0.28125 -0.859375 0.421875l0 -0.796875q0.6875 -0.328125 1.203125 -0.78125q0.515625 -0.453125 0.734375 -0.890625l0.515625 0l0 6.703125zm2.1097412 -3.296875q0 -1.1875 0.234375 -1.90625q0.25 -0.71875 0.71875 -1.109375q0.484375 -0.390625 1.21875 -0.390625q0.546875 0 0.9375 0.21875q0.40625 0.21875 0.671875 0.625q0.265625 0.40625 0.40625 1.0q0.15625 0.578125 0.15625 1.5625q0 1.171875 -0.234375 1.90625q-0.234375 0.71875 -0.71875 1.109375q-0.484375 0.390625 -1.21875 0.390625q-0.96875 0 -1.515625 -0.6875q-0.65625 -0.828125 -0.65625 -2.71875zm0.84375 0q0 1.640625 0.375 2.1875q0.390625 0.546875 0.953125 0.546875q0.5625 0 0.953125 -0.546875q0.390625 -0.546875 0.390625 -2.1875q0 -1.640625 -0.390625 -2.1875q-0.390625 -0.546875 -0.953125 -0.546875q-0.578125 0 -0.90625 0.484375q-0.421875 0.609375 -0.421875 2.25zm10.013901 3.296875l-0.8125 0l0 -5.21875q-0.296875 0.28125 -0.78125 0.5625q-0.484375 0.28125 -0.859375 0.421875l0 -0.796875q0.6875 -0.328125 1.203125 -0.78125q0.515625 -0.453125 0.734375 -0.890625l0.515625 0l0 6.703125zm2.1097412 -3.296875q0 -1.1875 0.234375 -1.90625q0.25 -0.71875 0.71875 -1.109375q0.484375 -0.390625 1.21875 -0.390625q0.546875 0 0.9375 0.21875q0.40625 0.21875 0.671875 0.625q0.265625 0.40625 0.40625 1.0q0.15625 0.578125 0.15625 1.5625q0 1.171875 -0.234375 1.90625q-0.234375 0.71875 -0.71875 1.109375q-0.484375 0.390625 -1.21875 0.390625q-0.96875 0 -1.515625 -0.6875q-0.65625 -0.828125 -0.65625 -2.71875zm0.84375 0q0 1.640625 0.375 2.1875q0.390625 0.546875 0.953125 0.546875q0.5625 0 0.953125 -0.546875q0.390625 -0.546875 0.390625 -2.1875q0 -1.640625 -0.390625 -2.1875q-0.390625 -0.546875 -0.953125 -0.546875q-0.578125 0 -0.90625 0.484375q-0.421875 0.609375 -0.421875 2.25zm7.422241 3.296875l-0.8125 0l0 -5.21875q-0.296875 0.28125 -0.78125 0.5625q-0.484375 0.28125 -0.859375 0.421875l0 -0.796875q0.6875 -0.328125 1.203125 -0.78125q0.515625 -0.453125 0.734375 -0.890625l0.515625 0l0 6.703125zm2.1097412 -3.296875q0 -1.1875 0.234375 -1.90625q0.25 -0.71875 0.71875 -1.109375q0.484375 -0.390625 1.21875 -0.390625q0.546875 0 0.9375 0.21875q0.40625 0.21875 0.671875 0.625q0.265625 0.40625 0.40625 1.0q0.15625 0.578125 0.15625 1.5625q0 1.171875 -0.234375 1.90625q-0.234375 0.71875 -0.71875 1.109375q-0.484375 0.390625 -1.21875 0.390625q-0.96875 0 -1.515625 -0.6875q-0.65625 -0.828125 -0.65625 -2.71875zm0.84375 0q0 1.640625 0.375 2.1875q0.390625 0.546875 0.953125 0.546875q0.5625 0 0.953125 -0.546875q0.390625 -0.546875 0.390625 -2.1875q0 -1.640625 -0.390625 -2.1875q-0.390625 -0.546875 -0.953125 -0.546875q-0.578125 0 -0.90625 0.484375q-0.421875 0.609375 -0.421875 2.25z" fill-rule="nonzero"/><path fill="#000000" d="m75.678734 183.48335l-0.8125 0l0 -5.21875q-0.296875 0.28125 -0.78125 0.5625q-0.484375 0.28125 -0.859375 0.421875l0 -0.796875q0.6875 -0.328125 1.203125 -0.78125q0.515625 -0.453125 0.734375 -0.890625l0.515625 0l0 6.703125zm2.1097412 -3.296875q0 -1.1875 0.234375 -1.90625q0.25 -0.71875 0.71875 -1.109375q0.484375 -0.390625 1.21875 -0.390625q0.546875 0 0.9375 0.21875q0.40625 0.21875 0.671875 0.625q0.265625 0.40625 0.40625 1.0q0.15625 0.578125 0.15625 1.5625q0 1.171875 -0.234375 1.90625q-0.234375 0.71875 -0.71875 1.109375q-0.484375 0.390625 -1.21875 0.390625q-0.96875 0 -1.515625 -0.6875q-0.65625 -0.828125 -0.65625 -2.71875zm0.84375 0q0 1.640625 0.375 2.1875q0.390625 0.546875 0.953125 0.546875q0.5625 0 0.953125 -0.546875q0.390625 -0.546875 0.390625 -2.1875q0 -1.640625 -0.390625 -2.1875q-0.390625 -0.546875 -0.953125 -0.546875q-0.578125 0 -0.90625 0.484375q-0.421875 0.609375 -0.421875 2.25zm7.422241 3.296875l-0.8125 0l0 -5.21875q-0.296875 0.28125 -0.78125 0.5625q-0.484375 0.28125 -0.859375 0.421875l0 -0.796875q0.6875 -0.328125 1.203125 -0.78125q0.515625 -0.453125 0.734375 -0.890625l0.515625 0l0 6.703125zm2.1097412 -3.296875q0 -1.1875 0.234375 -1.90625q0.25 -0.71875 0.71875 -1.109375q0.484375 -0.390625 1.21875 -0.390625q0.546875 0 0.9375 0.21875q0.40625 0.21875 0.671875 0.625q0.265625 0.40625 0.40625 1.0q0.15625 0.578125 0.15625 1.5625q0 1.171875 -0.234375 1.90625q-0.234375 0.71875 -0.71875 1.109375q-0.484375 0.390625 -1.21875 0.390625q-0.96875 0 -1.515625 -0.6875q-0.65625 -0.828125 -0.65625 -2.71875zm0.84375 0q0 1.640625 0.375 2.1875q0.390625 0.546875 0.953125 0.546875q0.5625 0 0.953125 -0.546875q0.390625 -0.546875 0.390625 -2.1875q0 -1.640625 -0.390625 -2.1875q-0.390625 -0.546875 -0.953125 -0.546875q-0.578125 0 -0.90625 0.484375q-0.421875 0.609375 -0.421875 2.25zm10.013901 3.296875l-0.8125 0l0 -5.21875q-0.296875 0.28125 -0.78125 0.5625q-0.484375 0.28125 -0.859375 0.421875l0 -0.796875q0.6875 -0.328125 1.203125 -0.78125q0.515625 -0.453125 0.734375 -0.890625l0.515625 0l0 6.703125zm2.1097412 -3.296875q0 -1.1875 0.234375 -1.90625q0.25 -0.71875 0.71875 -1.109375q0.484375 -0.390625 1.21875 -0.390625q0.546875 0 0.9375 0.21875q0.40625 0.21875 0.671875 0.625q0.265625 0.40625 0.40625 1.0q0.15625 0.578125 0.15625 1.5625q0 1.171875 -0.234375 1.90625q-0.234375 0.71875 -0.71875 1.109375q-0.484375 0.390625 -1.21875 0.390625q-0.96875 0 -1.515625 -0.6875q-0.65625 -0.828125 -0.65625 -2.71875zm0.84375 0q0 1.640625 0.375 2.1875q0.390625 0.546875 0.953125 0.546875q0.5625 0 0.953125 -0.546875q0.390625 -0.546875 0.390625 -2.1875q0 -1.640625 -0.390625 -2.1875q-0.390625 -0.546875 -0.953125 -0.546875q-0.578125 0 -0.90625 0.484375q-0.421875 0.609375 -0.421875 2.25zm7.422241 3.296875l-0.8125 0l0 -5.21875q-0.296875 0.28125 -0.78125 0.5625q-0.484375 0.28125 -0.859375 0.421875l0 -0.796875q0.6875 -0.328125 1.203125 -0.78125q0.515625 -0.453125 0.734375 -0.890625l0.515625 0l0 6.703125zm2.1097412 -3.296875q0 -1.1875 0.234375 -1.90625q0.25 -0.71875 0.71875 -1.109375q0.484375 -0.390625 1.21875 -0.390625q0.546875 0 0.9375 0.21875q0.40625 0.21875 0.671875 0.625q0.265625 0.40625 0.40625 1.0q0.15625 0.578125 0.15625 1.5625q0 1.171875 -0.234375 1.90625q-0.234375 0.71875 -0.71875 1.109375q-0.484375 0.390625 -1.21875 0.390625q-0.96875 0 -1.515625 -0.6875q-0.65625 -0.828125 -0.65625 -2.71875zm0.84375 0q0 1.640625 0.375 2.1875q0.390625 0.546875 0.953125 0.546875q0.5625 0 0.953125 -0.546875q0.390625 -0.546875 0.390625 -2.1875q0 -1.640625 -0.390625 -2.1875q-0.390625 -0.546875 -0.953125 -0.546875q-0.578125 0 -0.90625 0.484375q-0.421875 0.609375 -0.421875 2.25z" fill-rule="nonzero"/><path fill="#000000" d="m130.53963 183.48335l-0.8125 0l0 -5.21875q-0.296875 0.28125 -0.78125 0.5625q-0.484375 0.28125 -0.859375 0.421875l0 -0.796875q0.6875 -0.328125 1.203125 -0.78125q0.515625 -0.453125 0.734375 -0.890625l0.515625 0l0 6.703125zm2.1097412 -3.296875q0 -1.1875 0.234375 -1.90625q0.25 -0.71875 0.71875 -1.109375q0.484375 -0.390625 1.21875 -0.390625q0.546875 0 0.9375 0.21875q0.40625 0.21875 0.671875 0.625q0.265625 0.40625 0.40625 1.0q0.15625 0.578125 0.15625 1.5625q0 1.171875 -0.234375 1.90625q-0.234375 0.71875 -0.71875 1.109375q-0.484375 0.390625 -1.21875 0.390625q-0.96875 0 -1.515625 -0.6875q-0.65625 -0.828125 -0.65625 -2.71875zm0.84375 0q0 1.640625 0.375 2.1875q0.390625 0.546875 0.953125 0.546875q0.5625 0 0.953125 -0.546875q0.390625 -0.546875 0.390625 -2.1875q0 -1.640625 -0.390625 -2.1875q-0.390625 -0.546875 -0.953125 -0.546875q-0.578125 0 -0.90625 0.484375q-0.421875 0.609375 -0.421875 2.25zm7.422241 3.296875l-0.8125 0l0 -5.21875q-0.296875 0.28125 -0.78125 0.5625q-0.484375 0.28125 -0.859375 0.421875l0 -0.796875q0.6875 -0.328125 1.203125 -0.78125q0.515625 -0.453125 0.734375 -0.890625l0.515625 0l0 6.703125zm2.1097412 -3.296875q0 -1.1875 0.234375 -1.90625q0.25 -0.71875 0.71875 -1.109375q0.484375 -0.390625 1.21875 -0.390625q0.546875 0 0.9375 0.21875q0.40625 0.21875 0.671875 0.625q0.265625 0.40625 0.40625 1.0q0.15625 0.578125 0.15625 1.5625q0 1.171875 -0.234375 1.90625q-0.234375 0.71875 -0.71875 1.109375q-0.484375 0.390625 -1.21875 0.390625q-0.96875 0 -1.515625 -0.6875q-0.65625 -0.828125 -0.65625 -2.71875zm0.84375 0q0 1.640625 0.375 2.1875q0.390625 0.546875 0.953125 0.546875q0.5625 0 0.953125 -0.546875q0.390625 -0.546875 0.390625 -2.1875q0 -1.640625 -0.390625 -2.1875q-0.390625 -0.546875 -0.953125 -0.546875q-0.578125 0 -0.90625 0.484375q-0.421875 0.609375 -0.421875 2.25zm10.013901 3.296875l-0.8125 0l0 -5.21875q-0.296875 0.28125 -0.78125 0.5625q-0.484375 0.28125 -0.859375 0.421875l0 -0.796875q0.6875 -0.328125 1.203125 -0.78125q0.515625 -0.453125 0.734375 -0.890625l0.515625 0l0 6.703125zm2.1097412 -3.296875q0 -1.1875 0.234375 -1.90625q0.25 -0.71875 0.71875 -1.109375q0.484375 -0.390625 1.21875 -0.390625q0.546875 0 0.9375 0.21875q0.40625 0.21875 0.671875 0.625q0.265625 0.40625 0.40625 1.0q0.15625 0.578125 0.15625 1.5625q0 1.171875 -0.234375 1.90625q-0.234375 0.71875 -0.71875 1.109375q-0.484375 0.390625 -1.21875 0.390625q-0.96875 0 -1.515625 -0.6875q-0.65625 -0.828125 -0.65625 -2.71875zm0.84375 0q0 1.640625 0.375 2.1875q0.390625 0.546875 0.953125 0.546875q0.5625 0 0.953125 -0.546875q0.390625 -0.546875 0.390625 -2.1875q0 -1.640625 -0.390625 -2.1875q-0.390625 -0.546875 -0.953125 -0.546875q-0.578125 0 -0.90625 0.484375q-0.421875 0.609375 -0.421875 2.25zm7.422241 3.296875l-0.8125 0l0 -5.21875q-0.296875 0.28125 -0.78125 0.5625q-0.484375 0.28125 -0.859375 0.421875l0 -0.796875q0.6875 -0.328125 1.203125 -0.78125q0.515625 -0.453125 0.734375 -0.890625l0.515625 0l0 6.703125zm2.1097412 -3.296875q0 -1.1875 0.234375 -1.90625q0.25 -0.71875 0.71875 -1.109375q0.484375 -0.390625 1.21875 -0.390625q0.546875 0 0.9375 0.21875q0.40625 0.21875 0.671875 0.625q0.265625 0.40625 0.40625 1.0q0.15625 0.578125 0.15625 1.5625q0 1.171875 -0.234375 1.90625q-0.234375 0.71875 -0.71875 1.109375q-0.484375 0.390625 -1.21875 0.390625q-0.96875 0 -1.515625 -0.6875q-0.65625 -0.828125 -0.65625 -2.71875zm0.84375 0q0 1.640625 0.375 2.1875q0.390625 0.546875 0.953125 0.546875q0.5625 0 0.953125 -0.546875q0.390625 -0.546875 0.390625 -2.1875q0 -1.640625 -0.390625 -2.1875q-0.390625 -0.546875 -0.953125 -0.546875q-0.578125 0 -0.90625 0.484375q-0.421875 0.609375 -0.421875 2.25z" fill-rule="nonzero"/><path fill="#000000" d="m185.40053 183.48335l-0.8125 0l0 -5.21875q-0.296875 0.28125 -0.78125 0.5625q-0.484375 0.28125 -0.859375 0.421875l0 -0.796875q0.6875 -0.328125 1.203125 -0.78125q0.515625 -0.453125 0.734375 -0.890625l0.515625 0l0 6.703125zm2.1097412 -3.296875q0 -1.1875 0.234375 -1.90625q0.25 -0.71875 0.71875 -1.109375q0.484375 -0.390625 1.21875 -0.390625q0.546875 0 0.9375 0.21875q0.40625 0.21875 0.671875 0.625q0.265625 0.40625 0.40625 1.0q0.15625 0.578125 0.15625 1.5625q0 1.171875 -0.234375 1.90625q-0.234375 0.71875 -0.71875 1.109375q-0.484375 0.390625 -1.21875 0.390625q-0.96875 0 -1.515625 -0.6875q-0.65625 -0.828125 -0.65625 -2.71875zm0.84375 0q0 1.640625 0.375 2.1875q0.390625 0.546875 0.953125 0.546875q0.5625 0 0.953125 -0.546875q0.390625 -0.546875 0.390625 -2.1875q0 -1.640625 -0.390625 -2.1875q-0.390625 -0.546875 -0.953125 -0.546875q-0.578125 0 -0.90625 0.484375q-0.421875 0.609375 -0.421875 2.25zm7.422241 3.296875l-0.8125 0l0 -5.21875q-0.296875 0.28125 -0.78125 0.5625q-0.484375 0.28125 -0.859375 0.421875l0 -0.796875q0.6875 -0.328125 1.203125 -0.78125q0.515625 -0.453125 0.734375 -0.890625l0.515625 0l0 6.703125zm2.1097412 -3.296875q0 -1.1875 0.234375 -1.90625q0.25 -0.71875 0.71875 -1.109375q0.484375 -0.390625 1.21875 -0.390625q0.546875 0 0.9375 0.21875q0.40625 0.21875 0.671875 0.625q0.265625 0.40625 0.40625 1.0q0.15625 0.578125 0.15625 1.5625q0 1.171875 -0.234375 1.90625q-0.234375 0.71875 -0.71875 1.109375q-0.484375 0.390625 -1.21875 0.390625q-0.96875 0 -1.515625 -0.6875q-0.65625 -0.828125 -0.65625 -2.71875zm0.84375 0q0 1.640625 0.375 2.1875q0.390625 0.546875 0.953125 0.546875q0.5625 0 0.953125 -0.546875q0.390625 -0.546875 0.390625 -2.1875q0 -1.640625 -0.390625 -2.1875q-0.390625 -0.546875 -0.953125 -0.546875q-0.578125 0 -0.90625 0.484375q-0.421875 0.609375 -0.421875 2.25zm10.013901 3.296875l-0.8125 0l0 -5.21875q-0.296875 0.28125 -0.78125 0.5625q-0.484375 0.28125 -0.859375 0.421875l0 -0.796875q0.6875 -0.328125 1.203125 -0.78125q0.515625 -0.453125 0.734375 -0.890625l0.515625 0l0 6.703125zm2.1097412 -3.296875q0 -1.1875 0.234375 -1.90625q0.25 -0.71875 0.71875 -1.109375q0.484375 -0.390625 1.21875 -0.390625q0.546875 0 0.9375 0.21875q0.40625 0.21875 0.671875 0.625q0.265625 0.40625 0.40625 1.0q0.15625 0.578125 0.15625 1.5625q0 1.171875 -0.234375 1.90625q-0.234375 0.71875 -0.71875 1.109375q-0.484375 0.390625 -1.21875 0.390625q-0.96875 0 -1.515625 -0.6875q-0.65625 -0.828125 -0.65625 -2.71875zm0.84375 0q0 1.640625 0.375 2.1875q0.390625 0.546875 0.953125 0.546875q0.5625 0 0.953125 -0.546875q0.390625 -0.546875 0.390625 -2.1875q0 -1.640625 -0.390625 -2.1875q-0.390625 -0.546875 -0.953125 -0.546875q-0.578125 0 -0.90625 0.484375q-0.421875 0.609375 -0.421875 2.25zm7.422241 3.296875l-0.8125 0l0 -5.21875q-0.296875 0.28125 -0.78125 0.5625q-0.484375 0.28125 -0.859375 0.421875l0 -0.796875q0.6875 -0.328125 1.203125 -0.78125q0.515625 -0.453125 0.734375 -0.890625l0.515625 0l0 6.703125zm2.1097412 -3.296875q0 -1.1875 0.234375 -1.90625q0.25 -0.71875 0.71875 -1.109375q0.484375 -0.390625 1.21875 -0.390625q0.546875 0 0.9375 0.21875q0.40625 0.21875 0.671875 0.625q0.265625 0.40625 0.40625 1.0q0.15625 0.578125 0.15625 1.5625q0 1.171875 -0.234375 1.90625q-0.234375 0.71875 -0.71875 1.109375q-0.484375 0.390625 -1.21875 0.390625q-0.96875 0 -1.515625 -0.6875q-0.65625 -0.828125 -0.65625 -2.71875zm0.84375 0q0 1.640625 0.375 2.1875q0.390625 0.546875 0.953125 0.546875q0.5625 0 0.953125 -0.546875q0.390625 -0.546875 0.390625 -2.1875q0 -1.640625 -0.390625 -2.1875q-0.390625 -0.546875 -0.953125 -0.546875q-0.578125 0 -0.90625 0.484375q-0.421875 0.609375 -0.421875 2.25z" fill-rule="nonzero"/><path fill="#000000" d="m240.26141 183.48335l-0.8125 0l0 -5.21875q-0.296875 0.28125 -0.78125 0.5625q-0.484375 0.28125 -0.859375 0.421875l0 -0.796875q0.6875 -0.328125 1.203125 -0.78125q0.515625 -0.453125 0.734375 -0.890625l0.515625 0l0 6.703125zm2.1097412 -3.296875q0 -1.1875 0.234375 -1.90625q0.25 -0.71875 0.71875 -1.109375q0.484375 -0.390625 1.21875 -0.390625q0.546875 0 0.9375 0.21875q0.40625 0.21875 0.671875 0.625q0.265625 0.40625 0.40625 1.0q0.15625 0.578125 0.15625 1.5625q0 1.171875 -0.234375 1.90625q-0.234375 0.71875 -0.71875 1.109375q-0.484375 0.390625 -1.21875 0.390625q-0.96875 0 -1.515625 -0.6875q-0.65625 -0.828125 -0.65625 -2.71875zm0.84375 0q0 1.640625 0.375 2.1875q0.390625 0.546875 0.953125 0.546875q0.5625 0 0.953125 -0.546875q0.390625 -0.546875 0.390625 -2.1875q0 -1.640625 -0.390625 -2.1875q-0.390625 -0.546875 -0.953125 -0.546875q-0.578125 0 -0.90625 0.484375q-0.421875 0.609375 -0.421875 2.25zm7.422241 3.296875l-0.8125 0l0 -5.21875q-0.296875 0.28125 -0.78125 0.5625q-0.484375 0.28125 -0.859375 0.421875l0 -0.796875q0.6875 -0.328125 1.203125 -0.78125q0.515625 -0.453125 0.734375 -0.890625l0.515625 0l0 6.703125zm2.1097412 -3.296875q0 -1.1875 0.234375 -1.90625q0.25 -0.71875 0.71875 -1.109375q0.484375 -0.390625 1.21875 -0.390625q0.546875 0 0.9375 0.21875q0.40625 0.21875 0.671875 0.625q0.265625 0.40625 0.40625 1.0q0.15625 0.578125 0.15625 1.5625q0 1.171875 -0.234375 1.90625q-0.234375 0.71875 -0.71875 1.109375q-0.484375 0.390625 -1.21875 0.390625q-0.96875 0 -1.515625 -0.6875q-0.65625 -0.828125 -0.65625 -2.71875zm0.84375 0q0 1.640625 0.375 2.1875q0.390625 0.546875 0.953125 0.546875q0.5625 0 0.953125 -0.546875q0.390625 -0.546875 0.390625 -2.1875q0 -1.640625 -0.390625 -2.1875q-0.390625 -0.546875 -0.953125 -0.546875q-0.578125 0 -0.90625 0.484375q-0.421875 0.609375 -0.421875 2.25zm10.0138855 3.296875l-0.8125 0l0 -5.21875q-0.296875 0.28125 -0.78125 0.5625q-0.484375 0.28125 -0.859375 0.421875l0 -0.796875q0.6875 -0.328125 1.203125 -0.78125q0.515625 -0.453125 0.734375 -0.890625l0.515625 0l0 6.703125zm2.1097412 -3.296875q0 -1.1875 0.234375 -1.90625q0.25 -0.71875 0.71875 -1.109375q0.484375 -0.390625 1.21875 -0.390625q0.546875 0 0.9375 0.21875q0.40625 0.21875 0.671875 0.625q0.265625 0.40625 0.40625 1.0q0.15625 0.578125 0.15625 1.5625q0 1.171875 -0.234375 1.90625q-0.234375 0.71875 -0.71875 1.109375q-0.484375 0.390625 -1.21875 0.390625q-0.96875 0 -1.515625 -0.6875q-0.65625 -0.828125 -0.65625 -2.71875zm0.84375 0q0 1.640625 0.375 2.1875q0.390625 0.546875 0.953125 0.546875q0.5625 0 0.953125 -0.546875q0.390625 -0.546875 0.390625 -2.1875q0 -1.640625 -0.390625 -2.1875q-0.390625 -0.546875 -0.953125 -0.546875q-0.578125 0 -0.90625 0.484375q-0.421875 0.609375 -0.421875 2.25zm7.422241 3.296875l-0.8125 0l0 -5.21875q-0.296875 0.28125 -0.78125 0.5625q-0.484375 0.28125 -0.859375 0.421875l0 -0.796875q0.6875 -0.328125 1.203125 -0.78125q0.515625 -0.453125 0.734375 -0.890625l0.515625 0l0 6.703125zm2.1097412 -3.296875q0 -1.1875 0.234375 -1.90625q0.25 -0.71875 0.71875 -1.109375q0.484375 -0.390625 1.21875 -0.390625q0.546875 0 0.9375 0.21875q0.40625 0.21875 0.671875 0.625q0.265625 0.40625 0.40625 1.0q0.15625 0.578125 0.15625 1.5625q0 1.171875 -0.234375 1.90625q-0.234375 0.71875 -0.71875 1.109375q-0.484375 0.390625 -1.21875 0.390625q-0.96875 0 -1.515625 -0.6875q-0.65625 -0.828125 -0.65625 -2.71875zm0.84375 0q0 1.640625 0.375 2.1875q0.390625 0.546875 0.953125 0.546875q0.5625 0 0.953125 -0.546875q0.390625 -0.546875 0.390625 -2.1875q0 -1.640625 -0.390625 -2.1875q-0.390625 -0.546875 -0.953125 -0.546875q-0.578125 0 -0.90625 0.484375q-0.421875 0.609375 -0.421875 2.25z" fill-rule="nonzero"/><path fill="#000000" d="m295.1223 183.48335l-0.8125 0l0 -5.21875q-0.296875 0.28125 -0.78125 0.5625q-0.484375 0.28125 -0.859375 0.421875l0 -0.796875q0.6875 -0.328125 1.203125 -0.78125q0.515625 -0.453125 0.734375 -0.890625l0.515625 0l0 6.703125zm2.1097412 -3.296875q0 -1.1875 0.234375 -1.90625q0.25 -0.71875 0.71875 -1.109375q0.484375 -0.390625 1.21875 -0.390625q0.546875 0 0.9375 0.21875q0.40625 0.21875 0.671875 0.625q0.265625 0.40625 0.40625 1.0q0.15625 0.578125 0.15625 1.5625q0 1.171875 -0.234375 1.90625q-0.234375 0.71875 -0.71875 1.109375q-0.484375 0.390625 -1.21875 0.390625q-0.96875 0 -1.515625 -0.6875q-0.65625 -0.828125 -0.65625 -2.71875zm0.84375 0q0 1.640625 0.375 2.1875q0.390625 0.546875 0.953125 0.546875q0.5625 0 0.953125 -0.546875q0.390625 -0.546875 0.390625 -2.1875q0 -1.640625 -0.390625 -2.1875q-0.390625 -0.546875 -0.953125 -0.546875q-0.578125 0 -0.90625 0.484375q-0.421875 0.609375 -0.421875 2.25zm7.422241 3.296875l-0.8125 0l0 -5.21875q-0.296875 0.28125 -0.78125 0.5625q-0.484375 0.28125 -0.859375 0.421875l0 -0.796875q0.6875 -0.328125 1.203125 -0.78125q0.515625 -0.453125 0.734375 -0.890625l0.515625 0l0 6.703125zm2.1097412 -3.296875q0 -1.1875 0.234375 -1.90625q0.25 -0.71875 0.71875 -1.109375q0.484375 -0.390625 1.21875 -0.390625q0.546875 0 0.9375 0.21875q0.40625 0.21875 0.671875 0.625q0.265625 0.40625 0.40625 1.0q0.15625 0.578125 0.15625 1.5625q0 1.171875 -0.234375 1.90625q-0.234375 0.71875 -0.71875 1.109375q-0.484375 0.390625 -1.21875 0.390625q-0.96875 0 -1.515625 -0.6875q-0.65625 -0.828125 -0.65625 -2.71875zm0.84375 0q0 1.640625 0.375 2.1875q0.390625 0.546875 0.953125 0.546875q0.5625 0 0.953125 -0.546875q0.390625 -0.546875 0.390625 -2.1875q0 -1.640625 -0.390625 -2.1875q-0.390625 -0.546875 -0.953125 -0.546875q-0.578125 0 -0.90625 0.484375q-0.421875 0.609375 -0.421875 2.25zm10.0138855 3.296875l-0.8125 0l0 -5.21875q-0.296875 0.28125 -0.78125 0.5625q-0.484375 0.28125 -0.859375 0.421875l0 -0.796875q0.6875 -0.328125 1.203125 -0.78125q0.515625 -0.453125 0.734375 -0.890625l0.515625 0l0 6.703125zm2.1097412 -3.296875q0 -1.1875 0.234375 -1.90625q0.25 -0.71875 0.71875 -1.109375q0.484375 -0.390625 1.21875 -0.390625q0.546875 0 0.9375 0.21875q0.40625 0.21875 0.671875 0.625q0.265625 0.40625 0.40625 1.0q0.15625 0.578125 0.15625 1.5625q0 1.171875 -0.234375 1.90625q-0.234375 0.71875 -0.71875 1.109375q-0.484375 0.390625 -1.21875 0.390625q-0.96875 0 -1.515625 -0.6875q-0.65625 -0.828125 -0.65625 -2.71875zm0.84375 0q0 1.640625 0.375 2.1875q0.390625 0.546875 0.953125 0.546875q0.5625 0 0.953125 -0.546875q0.390625 -0.546875 0.390625 -2.1875q0 -1.640625 -0.390625 -2.1875q-0.390625 -0.546875 -0.953125 -0.546875q-0.578125 0 -0.90625 0.484375q-0.421875 0.609375 -0.421875 2.25zm7.422241 3.296875l-0.8125 0l0 -5.21875q-0.296875 0.28125 -0.78125 0.5625q-0.484375 0.28125 -0.859375 0.421875l0 -0.796875q0.6875 -0.328125 1.203125 -0.78125q0.515625 -0.453125 0.734375 -0.890625l0.515625 0l0 6.703125zm2.1097412 -3.296875q0 -1.1875 0.234375 -1.90625q0.25 -0.71875 0.71875 -1.109375q0.484375 -0.390625 1.21875 -0.390625q0.546875 0 0.9375 0.21875q0.40625 0.21875 0.671875 0.625q0.265625 0.40625 0.40625 1.0q0.15625 0.578125 0.15625 1.5625q0 1.171875 -0.234375 1.90625q-0.234375 0.71875 -0.71875 1.109375q-0.484375 0.390625 -1.21875 0.390625q-0.96875 0 -1.515625 -0.6875q-0.65625 -0.828125 -0.65625 -2.71875zm0.84375 0q0 1.640625 0.375 2.1875q0.390625 0.546875 0.953125 0.546875q0.5625 0 0.953125 -0.546875q0.390625 -0.546875 0.390625 -2.1875q0 -1.640625 -0.390625 -2.1875q-0.390625 -0.546875 -0.953125 -0.546875q-0.578125 0 -0.90625 0.484375q-0.421875 0.609375 -0.421875 2.25z" fill-rule="nonzero"/><path fill="#000000" d="m349.9832 183.48335l-0.8125 0l0 -5.21875q-0.296875 0.28125 -0.78125 0.5625q-0.484375 0.28125 -0.859375 0.421875l0 -0.796875q0.6875 -0.328125 1.203125 -0.78125q0.515625 -0.453125 0.734375 -0.890625l0.515625 0l0 6.703125zm2.1097412 -3.296875q0 -1.1875 0.234375 -1.90625q0.25 -0.71875 0.71875 -1.109375q0.484375 -0.390625 1.21875 -0.390625q0.546875 0 0.9375 0.21875q0.40625 0.21875 0.671875 0.625q0.265625 0.40625 0.40625 1.0q0.15625 0.578125 0.15625 1.5625q0 1.171875 -0.234375 1.90625q-0.234375 0.71875 -0.71875 1.109375q-0.484375 0.390625 -1.21875 0.390625q-0.96875 0 -1.515625 -0.6875q-0.65625 -0.828125 -0.65625 -2.71875zm0.84375 0q0 1.640625 0.375 2.1875q0.390625 0.546875 0.953125 0.546875q0.5625 0 0.953125 -0.546875q0.390625 -0.546875 0.390625 -2.1875q0 -1.640625 -0.390625 -2.1875q-0.390625 -0.546875 -0.953125 -0.546875q-0.578125 0 -0.90625 0.484375q-0.421875 0.609375 -0.421875 2.25zm7.422241 3.296875l-0.8125 0l0 -5.21875q-0.296875 0.28125 -0.78125 0.5625q-0.484375 0.28125 -0.859375 0.421875l0 -0.796875q0.6875 -0.328125 1.203125 -0.78125q0.515625 -0.453125 0.734375 -0.890625l0.515625 0l0 6.703125zm2.1097412 -3.296875q0 -1.1875 0.234375 -1.90625q0.25 -0.71875 0.71875 -1.109375q0.484375 -0.390625 1.21875 -0.390625q0.546875 0 0.9375 0.21875q0.40625 0.21875 0.671875 0.625q0.265625 0.40625 0.40625 1.0q0.15625 0.578125 0.15625 1.5625q0 1.171875 -0.234375 1.90625q-0.234375 0.71875 -0.71875 1.109375q-0.484375 0.390625 -1.21875 0.390625q-0.96875 0 -1.515625 -0.6875q-0.65625 -0.828125 -0.65625 -2.71875zm0.84375 0q0 1.640625 0.375 2.1875q0.390625 0.546875 0.953125 0.546875q0.5625 0 0.953125 -0.546875q0.390625 -0.546875 0.390625 -2.1875q0 -1.640625 -0.390625 -2.1875q-0.390625 -0.546875 -0.953125 -0.546875q-0.578125 0 -0.90625 0.484375q-0.421875 0.609375 -0.421875 2.25zm10.013916 3.296875l-0.8125 0l0 -5.21875q-0.296875 0.28125 -0.78125 0.5625q-0.484375 0.28125 -0.859375 0.421875l0 -0.796875q0.6875 -0.328125 1.203125 -0.78125q0.515625 -0.453125 0.734375 -0.890625l0.515625 0l0 6.703125zm2.1097412 -3.296875q0 -1.1875 0.234375 -1.90625q0.25 -0.71875 0.71875 -1.109375q0.484375 -0.390625 1.21875 -0.390625q0.546875 0 0.9375 0.21875q0.40625 0.21875 0.671875 0.625q0.265625 0.40625 0.40625 1.0q0.15625 0.578125 0.15625 1.5625q0 1.171875 -0.234375 1.90625q-0.234375 0.71875 -0.71875 1.109375q-0.484375 0.390625 -1.21875 0.390625q-0.96875 0 -1.515625 -0.6875q-0.65625 -0.828125 -0.65625 -2.71875zm0.84375 0q0 1.640625 0.375 2.1875q0.390625 0.546875 0.953125 0.546875q0.5625 0 0.953125 -0.546875q0.390625 -0.546875 0.390625 -2.1875q0 -1.640625 -0.390625 -2.1875q-0.390625 -0.546875 -0.953125 -0.546875q-0.578125 0 -0.90625 0.484375q-0.421875 0.609375 -0.421875 2.25zm7.422241 3.296875l-0.8125 0l0 -5.21875q-0.296875 0.28125 -0.78125 0.5625q-0.484375 0.28125 -0.859375 0.421875l0 -0.796875q0.6875 -0.328125 1.203125 -0.78125q0.515625 -0.453125 0.734375 -0.890625l0.515625 0l0 6.703125zm2.1097412 -3.296875q0 -1.1875 0.234375 -1.90625q0.25 -0.71875 0.71875 -1.109375q0.484375 -0.390625 1.21875 -0.390625q0.546875 0 0.9375 0.21875q0.40625 0.21875 0.671875 0.625q0.265625 0.40625 0.40625 1.0q0.15625 0.578125 0.15625 1.5625q0 1.171875 -0.234375 1.90625q-0.234375 0.71875 -0.71875 1.109375q-0.484375 0.390625 -1.21875 0.390625q-0.96875 0 -1.515625 -0.6875q-0.65625 -0.828125 -0.65625 -2.71875zm0.84375 0q0 1.640625 0.375 2.1875q0.390625 0.546875 0.953125 0.546875q0.5625 0 0.953125 -0.546875q0.390625 -0.546875 0.390625 -2.1875q0 -1.640625 -0.390625 -2.1875q-0.390625 -0.546875 -0.953125 -0.546875q-0.578125 0 -0.90625 0.484375q-0.421875 0.609375 -0.421875 2.25z" fill-rule="nonzero"/><path fill="#000000" d="m190.62799 205.98532l0.859375 -0.078125q0.09375 0.640625 0.4375 0.953125q0.359375 0.3125 0.84375 0.3125q0.59375 0 1.0 -0.4375q0.40625 -0.453125 0.40625 -1.1875q0 -0.703125 -0.390625 -1.109375q-0.390625 -0.40625 -1.03125 -0.40625q-0.390625 0 -0.71875 0.1875q-0.3125 0.171875 -0.5 0.453125l-0.765625 -0.09375l0.640625 -3.4375l3.328125 0l0 0.796875l-2.671875 0l-0.359375 1.78125q0.609375 -0.40625 1.265625 -0.40625q0.875 0 1.46875 0.609375q0.609375 0.59375 0.609375 1.546875q0 0.90625 -0.53125 1.5625q-0.640625 0.8125 -1.75 0.8125q-0.90625 0 -1.484375 -0.5q-0.578125 -0.515625 -0.65625 -1.359375zm9.437866 -3.296875l-0.8125 0.0625q-0.109375 -0.484375 -0.3125 -0.703125q-0.328125 -0.34375 -0.8125 -0.34375q-0.390625 0 -0.6875 0.21875q-0.390625 0.28125 -0.625 0.828125q-0.21875 0.53125 -0.21875 1.546875q0.296875 -0.453125 0.71875 -0.671875q0.421875 -0.21875 0.890625 -0.21875q0.828125 0 1.40625 0.609375q0.578125 0.59375 0.578125 1.546875q0 0.625 -0.28125 1.171875q-0.265625 0.546875 -0.75 0.828125q-0.46875 0.28125 -1.0625 0.28125q-1.03125 0 -1.6875 -0.75q-0.640625 -0.75 -0.640625 -2.484375q0 -1.9375 0.71875 -2.8125q0.625 -0.765625 1.6875 -0.765625q0.78125 0 1.28125 0.4375q0.515625 0.4375 0.609375 1.21875zm-3.34375 2.890625q0 0.421875 0.171875 0.8125q0.1875 0.375 0.5 0.578125q0.328125 0.203125 0.6875 0.203125q0.515625 0 0.890625 -0.40625q0.375 -0.421875 0.375 -1.15625q0 -0.6875 -0.375 -1.078125q-0.359375 -0.40625 -0.921875 -0.40625q-0.5625 0 -0.953125 0.40625q-0.375 0.390625 -0.375 1.046875zm7.8576508 2.15625l-0.765625 0l0 -6.671875l0.828125 0l0 2.375q0.515625 -0.65625 1.3125 -0.65625q0.453125 0 0.84375 0.1875q0.40625 0.171875 0.65625 0.5q0.265625 0.328125 0.40625 0.796875q0.15625 0.453125 0.15625 0.984375q0 1.234375 -0.625 1.921875q-0.609375 0.671875 -1.46875 0.671875q-0.859375 0 -1.34375 -0.71875l0 0.609375zm-0.015625 -2.453125q0 0.875 0.234375 1.25q0.390625 0.640625 1.046875 0.640625q0.546875 0 0.9375 -0.46875q0.390625 -0.46875 0.390625 -1.390625q0 -0.953125 -0.375 -1.390625q-0.375 -0.453125 -0.90625 -0.453125q-0.546875 0 -0.9375 0.46875q-0.390625 0.453125 -0.390625 1.34375zm4.453491 -3.28125l0 -0.9375l0.8125 0l0 0.9375l-0.8125 0zm0 5.734375l0 -4.84375l0.8125 0l0 4.84375l-0.8125 0zm3.8536682 -0.734375l0.109375 0.71875q-0.34375 0.078125 -0.609375 0.078125q-0.453125 0 -0.703125 -0.140625q-0.234375 -0.140625 -0.34375 -0.359375q-0.09375 -0.234375 -0.09375 -0.984375l0 -2.78125l-0.609375 0l0 -0.640625l0.609375 0l0 -1.1875l0.8125 -0.5l0 1.6875l0.828125 0l0 0.640625l-0.828125 0l0 2.828125q0 0.359375 0.046875 0.46875q0.046875 0.09375 0.140625 0.15625q0.09375 0.046875 0.28125 0.046875q0.140625 0 0.359375 -0.03125zm0.46665955 -0.703125l0.8125 -0.140625q0.078125 0.5 0.390625 0.765625q0.3125 0.25 0.859375 0.25q0.578125 0 0.84375 -0.234375q0.28125 -0.234375 0.28125 -0.53125q0 -0.28125 -0.25 -0.4375q-0.171875 -0.109375 -0.84375 -0.28125q-0.890625 -0.234375 -1.25 -0.390625q-0.34375 -0.171875 -0.53125 -0.46875q-0.171875 -0.296875 -0.171875 -0.640625q0 -0.328125 0.140625 -0.59375q0.15625 -0.28125 0.40625 -0.46875q0.203125 -0.140625 0.53125 -0.234375q0.328125 -0.109375 0.703125 -0.109375q0.578125 0 1.0 0.171875q0.4375 0.15625 0.640625 0.4375q0.203125 0.28125 0.28125 0.75l-0.796875 0.109375q-0.0625 -0.375 -0.328125 -0.578125q-0.265625 -0.203125 -0.734375 -0.203125q-0.5625 0 -0.8125 0.1875q-0.234375 0.171875 -0.234375 0.4375q0 0.15625 0.09375 0.28125q0.109375 0.125 0.3125 0.21875q0.125 0.046875 0.734375 0.203125q0.859375 0.234375 1.203125 0.390625q0.34375 0.140625 0.53125 0.421875q0.203125 0.28125 0.203125 0.703125q0 0.40625 -0.234375 0.78125q-0.234375 0.359375 -0.6875 0.5625q-0.453125 0.1875 -1.015625 0.1875q-0.953125 0 -1.453125 -0.390625q-0.484375 -0.390625 -0.625 -1.15625z" fill-rule="nonzero"/><path shape-rendering="crispEdges" fill="#fff2cc" d="m408.00113 167.49501l131.9974 0l0 25.254593l-131.9974 0l0 -25.254593z" fill-rule="nonzero"/><path stroke="#434343" stroke-width="1.0" stroke-linecap="butt" d="m408.00113 59.500263l0 156.99213" fill-rule="nonzero"/><path stroke="#434343" stroke-width="1.0" stroke-linecap="butt" d="m539.99854 59.500263l0 156.99213" fill-rule="nonzero"/><path stroke="#434343" stroke-width="1.0" stroke-linecap="butt" d="m407.50244 59.99895l132.99475 0" fill-rule="nonzero"/><path stroke="#434343" stroke-width="1.0" stroke-linecap="butt" d="m407.50244 91.73123l132.99475 0" fill-rule="nonzero"/><path stroke="#cccccc" stroke-width="1.0" stroke-linecap="butt" d="m407.50244 116.985825l132.99475 0" fill-rule="nonzero"/><path stroke="#cccccc" stroke-width="1.0" stroke-linecap="butt" d="m407.50244 142.24042l132.99475 0" fill-rule="nonzero"/><path stroke="#434343" stroke-width="1.0" stroke-linecap="butt" d="m407.50244 167.49501l132.99475 0" fill-rule="nonzero"/><path stroke="#434343" stroke-width="1.0" stroke-linecap="butt" d="m407.50244 192.7496l132.99475 0" fill-rule="nonzero"/><path stroke="#434343" stroke-width="1.0" stroke-linecap="butt" d="m407.50244 215.9937l132.99475 0" fill-rule="nonzero"/><path fill="#000000" d="m413.4374 77.053215l1.3125 -0.125q0.109375 0.65625 0.46875 0.96875q0.359375 0.3125 0.984375 0.3125q0.640625 0 0.96875 -0.28125q0.34375 -0.28125 0.34375 -0.640625q0 -0.234375 -0.140625 -0.40625q-0.140625 -0.171875 -0.484375 -0.28125q-0.234375 -0.09375 -1.078125 -0.296875q-1.09375 -0.265625 -1.53125 -0.65625q-0.609375 -0.5625 -0.609375 -1.34375q0 -0.515625 0.28125 -0.953125q0.296875 -0.453125 0.84375 -0.6875q0.546875 -0.234375 1.3125 -0.234375q1.25 0 1.890625 0.5625q0.640625 0.546875 0.671875 1.46875l-1.34375 0.0625q-0.09375 -0.515625 -0.375 -0.734375q-0.28125 -0.234375 -0.859375 -0.234375q-0.59375 0 -0.921875 0.234375q-0.203125 0.15625 -0.203125 0.421875q0 0.234375 0.1875 0.40625q0.265625 0.203125 1.25 0.4375q0.984375 0.234375 1.453125 0.484375q0.46875 0.25 0.734375 0.6875q0.265625 0.421875 0.265625 1.0625q0 0.5625 -0.328125 1.0625q-0.3125 0.5 -0.890625 0.75q-0.578125 0.25 -1.453125 0.25q-1.265625 0 -1.953125 -0.578125q-0.671875 -0.59375 -0.796875 -1.71875zm8.768646 -2.671875l0 1.03125l-0.875 0l0 1.9375q0 0.59375 0.015625 0.703125q0.03125 0.09375 0.109375 0.15625q0.09375 0.0625 0.234375 0.0625q0.171875 0 0.515625 -0.125l0.109375 1.0q-0.453125 0.1875 -1.015625 0.1875q-0.34375 0 -0.625 -0.109375q-0.28125 -0.125 -0.421875 -0.296875q-0.125 -0.1875 -0.171875 -0.515625q-0.03125 -0.21875 -0.03125 -0.890625l0 -2.109375l-0.59375 0l0 -1.03125l0.59375 0l0 -0.953125l1.28125 -0.75l0 1.703125l0.875 0zm1.8407288 1.484375l-1.15625 -0.21875q0.1875 -0.6875 0.65625 -1.03125q0.484375 -0.34375 1.4375 -0.34375q0.859375 0 1.265625 0.203125q0.421875 0.203125 0.59375 0.515625q0.171875 0.3125 0.171875 1.15625l-0.015625 1.484375q0 0.640625 0.0625 0.953125q0.0625 0.296875 0.234375 0.640625l-1.265625 0q-0.046875 -0.125 -0.125 -0.375q-0.03125 -0.109375 -0.046875 -0.15625q-0.328125 0.328125 -0.703125 0.484375q-0.375 0.15625 -0.796875 0.15625q-0.75 0 -1.1875 -0.40625q-0.421875 -0.40625 -0.421875 -1.03125q0 -0.40625 0.1875 -0.71875q0.203125 -0.328125 0.5625 -0.5q0.359375 -0.171875 1.015625 -0.296875q0.90625 -0.171875 1.25 -0.3125l0 -0.125q0 -0.375 -0.1875 -0.53125q-0.1875 -0.15625 -0.6875 -0.15625q-0.34375 0 -0.53125 0.140625q-0.1875 0.125 -0.3125 0.46875zm1.71875 1.03125q-0.25 0.09375 -0.78125 0.203125q-0.53125 0.109375 -0.703125 0.21875q-0.25 0.1875 -0.25 0.453125q0 0.265625 0.203125 0.46875q0.203125 0.1875 0.515625 0.1875q0.34375 0 0.65625 -0.21875q0.234375 -0.171875 0.296875 -0.421875q0.0625 -0.171875 0.0625 -0.625l0 -0.265625zm3.7347412 2.328125l-1.28125 0l0 -4.84375l1.1875 0l0 0.6875q0.3125 -0.484375 0.546875 -0.640625q0.25 -0.15625 0.5625 -0.15625q0.4375 0 0.84375 0.25l-0.390625 1.109375q-0.328125 -0.203125 -0.609375 -0.203125q-0.265625 0 -0.453125 0.15625q-0.1875 0.140625 -0.296875 0.53125q-0.109375 0.375 -0.109375 1.609375l0 1.5zm4.630127 -4.84375l0 1.03125l-0.875 0l0 1.9375q0 0.59375 0.015625 0.703125q0.03125 0.09375 0.109375 0.15625q0.09375 0.0625 0.234375 0.0625q0.171875 0 0.515625 -0.125l0.109375 1.0q-0.453125 0.1875 -1.015625 0.1875q-0.34375 0 -0.625 -0.109375q-0.28125 -0.125 -0.421875 -0.296875q-0.125 -0.1875 -0.171875 -0.515625q-0.03125 -0.21875 -0.03125 -0.890625l0 -2.109375l-0.59375 0l0 -1.03125l0.59375 0l0 -0.953125l1.28125 -0.75l0 1.703125l0.875 0zm3.494873 4.84375l0 -6.671875l4.578125 0l0 1.125l-3.234375 0l0 1.578125l2.796875 0l0 1.125l-2.796875 0l0 2.84375l-1.34375 0zm6.901123 0l-1.28125 0l0 -4.84375l1.1875 0l0 0.6875q0.3125 -0.484375 0.546875 -0.640625q0.25 -0.15625 0.5625 -0.15625q0.4375 0 0.84375 0.25l-0.390625 1.109375q-0.328125 -0.203125 -0.609375 -0.203125q-0.265625 0 -0.453125 0.15625q-0.1875 0.140625 -0.296875 0.53125q-0.109375 0.375 -0.109375 1.609375l0 1.5zm3.3645325 -3.359375l-1.15625 -0.21875q0.1875 -0.6875 0.65625 -1.03125q0.484375 -0.34375 1.4375 -0.34375q0.859375 0 1.265625 0.203125q0.421875 0.203125 0.59375 0.515625q0.171875 0.3125 0.171875 1.15625l-0.015625 1.484375q0 0.640625 0.0625 0.953125q0.0625 0.296875 0.234375 0.640625l-1.265625 0q-0.046875 -0.125 -0.125 -0.375q-0.03125 -0.109375 -0.046875 -0.15625q-0.328125 0.328125 -0.703125 0.484375q-0.375 0.15625 -0.796875 0.15625q-0.75 0 -1.1875 -0.40625q-0.421875 -0.40625 -0.421875 -1.03125q0 -0.40625 0.1875 -0.71875q0.203125 -0.328125 0.5625 -0.5q0.359375 -0.171875 1.015625 -0.296875q0.90625 -0.171875 1.25 -0.3125l0 -0.125q0 -0.375 -0.1875 -0.53125q-0.1875 -0.15625 -0.6875 -0.15625q-0.34375 0 -0.53125 0.140625q-0.1875 0.125 -0.3125 0.46875zm1.71875 1.03125q-0.25 0.09375 -0.78125 0.203125q-0.53125 0.109375 -0.703125 0.21875q-0.25 0.1875 -0.25 0.453125q0 0.265625 0.203125 0.46875q0.203125 0.1875 0.515625 0.1875q0.34375 0 0.65625 -0.21875q0.234375 -0.171875 0.296875 -0.421875q0.0625 -0.171875 0.0625 -0.625l0 -0.265625zm2.4222412 -2.515625l1.171875 0l0 0.671875q0.640625 -0.78125 1.515625 -0.78125q0.453125 0 0.796875 0.203125q0.34375 0.1875 0.5625 0.578125q0.328125 -0.390625 0.6875 -0.578125q0.375 -0.203125 0.796875 -0.203125q0.53125 0 0.890625 0.21875q0.375 0.21875 0.5625 0.640625q0.125 0.3125 0.125 1.0l0 3.09375l-1.28125 0l0 -2.765625q0 -0.71875 -0.125 -0.921875q-0.1875 -0.28125 -0.546875 -0.28125q-0.265625 0 -0.515625 0.171875q-0.234375 0.15625 -0.34375 0.484375q-0.09375 0.3125 -0.09375 0.984375l0 2.328125l-1.28125 0l0 -2.65625q0 -0.703125 -0.078125 -0.90625q-0.0625 -0.203125 -0.203125 -0.296875q-0.140625 -0.109375 -0.390625 -0.109375q-0.296875 0 -0.53125 0.171875q-0.234375 0.15625 -0.34375 0.453125q-0.09375 0.296875 -0.09375 1.0l0 2.34375l-1.28125 0l0 -4.84375zm11.184814 3.296875l1.28125 0.21875q-0.25 0.703125 -0.78125 1.078125q-0.53125 0.359375 -1.328125 0.359375q-1.265625 0 -1.859375 -0.828125q-0.484375 -0.65625 -0.484375 -1.65625q0 -1.203125 0.625 -1.890625q0.625 -0.6875 1.59375 -0.6875q1.078125 0 1.703125 0.71875q0.625 0.71875 0.59375 2.1875l-3.203125 0q0.015625 0.5625 0.3125 0.890625q0.296875 0.3125 0.734375 0.3125q0.296875 0 0.5 -0.15625q0.203125 -0.171875 0.3125 -0.546875zm0.078125 -1.28125q-0.015625 -0.5625 -0.296875 -0.84375q-0.265625 -0.296875 -0.65625 -0.296875q-0.421875 0 -0.6875 0.3125q-0.28125 0.296875 -0.28125 0.828125l1.921875 0zm4.904541 -3.84375l2.46875 0q0.828125 0 1.265625 0.125q0.59375 0.171875 1.0 0.609375q0.421875 0.4375 0.640625 1.078125q0.21875 0.640625 0.21875 1.578125q0 0.828125 -0.203125 1.421875q-0.25 0.734375 -0.703125 1.1875q-0.359375 0.34375 -0.953125 0.53125q-0.453125 0.140625 -1.1875 0.140625l-2.546875 0l0 -6.671875zm1.34375 1.125l0 4.421875l1.015625 0q0.5625 0 0.8125 -0.0625q0.328125 -0.078125 0.546875 -0.265625q0.21875 -0.203125 0.34375 -0.65625q0.140625 -0.453125 0.140625 -1.21875q0 -0.78125 -0.140625 -1.1875q-0.125 -0.421875 -0.375 -0.65625q-0.25 -0.234375 -0.625 -0.3125q-0.28125 -0.0625 -1.109375 -0.0625l-0.609375 0zm8.189606 4.0l1.28125 0.21875q-0.25 0.703125 -0.78125 1.078125q-0.53125 0.359375 -1.328125 0.359375q-1.265625 0 -1.859375 -0.828125q-0.484375 -0.65625 -0.484375 -1.65625q0 -1.203125 0.625 -1.890625q0.625 -0.6875 1.59375 -0.6875q1.078125 0 1.703125 0.71875q0.625 0.71875 0.59375 2.1875l-3.203125 0q0.015625 0.5625 0.3125 0.890625q0.296875 0.3125 0.734375 0.3125q0.296875 0 0.5 -0.15625q0.203125 -0.171875 0.3125 -0.546875zm0.078125 -1.28125q-0.015625 -0.5625 -0.296875 -0.84375q-0.265625 -0.296875 -0.65625 -0.296875q-0.421875 0 -0.6875 0.3125q-0.28125 0.296875 -0.28125 0.828125l1.921875 0zm2.3128662 2.828125l0 -6.671875l1.28125 0l0 6.671875l-1.28125 0zm2.5916443 -5.5l0 -1.171875l1.28125 0l0 1.171875l-1.28125 0zm0 5.5l0 -4.84375l1.28125 0l0 4.84375l-1.28125 0zm2.4979248 -4.84375l1.171875 0l0 0.671875q0.640625 -0.78125 1.515625 -0.78125q0.453125 0 0.796875 0.203125q0.34375 0.1875 0.5625 0.578125q0.328125 -0.390625 0.6875 -0.578125q0.375 -0.203125 0.796875 -0.203125q0.53125 0 0.890625 0.21875q0.375 0.21875 0.5625 0.640625q0.125 0.3125 0.125 1.0l0 3.09375l-1.28125 0l0 -2.765625q0 -0.71875 -0.125 -0.921875q-0.1875 -0.28125 -0.546875 -0.28125q-0.265625 0 -0.515625 0.171875q-0.234375 0.15625 -0.34375 0.484375q-0.09375 0.3125 -0.09375 0.984375l0 2.328125l-1.28125 0l0 -2.65625q0 -0.703125 -0.078125 -0.90625q-0.0625 -0.203125 -0.203125 -0.296875q-0.140625 -0.109375 -0.390625 -0.109375q-0.296875 0 -0.53125 0.171875q-0.234375 0.15625 -0.34375 0.453125q-0.09375 0.296875 -0.09375 1.0l0 2.34375l-1.28125 0l0 -4.84375zm8.387939 -0.65625l0 -1.171875l1.28125 0l0 1.171875l-1.28125 0zm0 5.5l0 -4.84375l1.28125 0l0 4.84375l-1.28125 0zm4.810425 -4.84375l0 1.03125l-0.875 0l0 1.9375q0 0.59375 0.015625 0.703125q0.03125 0.09375 0.109375 0.15625q0.09375 0.0625 0.234375 0.0625q0.171875 0 0.515625 -0.125l0.109375 1.0q-0.453125 0.1875 -1.015625 0.1875q-0.34375 0 -0.625 -0.109375q-0.28125 -0.125 -0.421875 -0.296875q-0.125 -0.1875 -0.171875 -0.515625q-0.03125 -0.21875 -0.03125 -0.890625l0 -2.109375l-0.59375 0l0 -1.03125l0.59375 0l0 -0.953125l1.28125 -0.75l0 1.703125l0.875 0zm3.6844482 3.296875l1.28125 0.21875q-0.25 0.703125 -0.78125 1.078125q-0.53125 0.359375 -1.328125 0.359375q-1.265625 0 -1.859375 -0.828125q-0.484375 -0.65625 -0.484375 -1.65625q0 -1.203125 0.625 -1.890625q0.625 -0.6875 1.59375 -0.6875q1.078125 0 1.703125 0.71875q0.625 0.71875 0.59375 2.1875l-3.203125 0q0.015625 0.5625 0.3125 0.890625q0.296875 0.3125 0.734375 0.3125q0.296875 0 0.5 -0.15625q0.203125 -0.171875 0.3125 -0.546875zm0.078125 -1.28125q-0.015625 -0.5625 -0.296875 -0.84375q-0.265625 -0.296875 -0.65625 -0.296875q-0.421875 0 -0.6875 0.3125q-0.28125 0.296875 -0.28125 0.828125l1.921875 0zm3.5316162 2.828125l-1.28125 0l0 -4.84375l1.1875 0l0 0.6875q0.3125 -0.484375 0.546875 -0.640625q0.25 -0.15625 0.5625 -0.15625q0.4375 0 0.84375 0.25l-0.390625 1.109375q-0.328125 -0.203125 -0.609375 -0.203125q-0.265625 0 -0.453125 0.15625q-0.1875 0.140625 -0.296875 0.53125q-0.109375 0.375 -0.109375 1.609375l0 1.5zm7.1280518 1.96875l-0.890625 0q-0.6875 -1.0625 -1.0625 -2.1875q-0.359375 -1.140625 -0.359375 -2.203125q0 -1.3125 0.453125 -2.484375q0.390625 -1.03125 1.0 -1.890625l0.875 0q-0.625 1.390625 -0.859375 2.359375q-0.234375 0.96875 -0.234375 2.046875q0 0.75 0.125 1.53125q0.140625 0.78125 0.390625 1.484375q0.15625 0.46875 0.5625 1.34375zm0.65319824 -4.140625l1.3125 -0.125q0.109375 0.65625 0.46875 0.96875q0.359375 0.3125 0.984375 0.3125q0.640625 0 0.96875 -0.28125q0.34375 -0.28125 0.34375 -0.640625q0 -0.234375 -0.140625 -0.40625q-0.140625 -0.171875 -0.484375 -0.28125q-0.234375 -0.09375 -1.078125 -0.296875q-1.09375 -0.265625 -1.53125 -0.65625q-0.609375 -0.5625 -0.609375 -1.34375q0 -0.515625 0.28125 -0.953125q0.296875 -0.453125 0.84375 -0.6875q0.546875 -0.234375 1.3125 -0.234375q1.25 0 1.890625 0.5625q0.640625 0.546875 0.671875 1.46875l-1.34375 0.0625q-0.09375 -0.515625 -0.375 -0.734375q-0.28125 -0.234375 -0.859375 -0.234375q-0.59375 0 -0.921875 0.234375q-0.203125 0.15625 -0.203125 0.421875q0 0.234375 0.1875 0.40625q0.265625 0.203125 1.25 0.4375q0.984375 0.234375 1.453125 0.484375q0.46875 0.25 0.734375 0.6875q0.265625 0.421875 0.265625 1.0625q0 0.5625 -0.328125 1.0625q-0.3125 0.5 -0.890625 0.75q-0.578125 0.25 -1.453125 0.25q-1.265625 0 -1.953125 -0.578125q-0.671875 -0.59375 -0.796875 -1.71875zm6.5655518 2.171875l0 -6.671875l4.578125 0l0 1.125l-3.234375 0l0 1.578125l2.796875 0l0 1.125l-2.796875 0l0 2.84375l-1.34375 0zm5.682373 -6.671875l2.46875 0q0.828125 0 1.265625 0.125q0.59375 0.171875 1.0 0.609375q0.421875 0.4375 0.640625 1.078125q0.21875 0.640625 0.21875 1.578125q0 0.828125 -0.203125 1.421875q-0.25 0.734375 -0.703125 1.1875q-0.359375 0.34375 -0.953125 0.53125q-0.453125 0.140625 -1.1875 0.140625l-2.546875 0l0 -6.671875zm1.34375 1.125l0 4.421875l1.015625 0q0.5625 0 0.8125 -0.0625q0.328125 -0.078125 0.546875 -0.265625q0.21875 -0.203125 0.34375 -0.65625q0.140625 -0.453125 0.140625 -1.21875q0 -0.78125 -0.140625 -1.1875q-0.125 -0.421875 -0.375 -0.65625q-0.25 -0.234375 -0.625 -0.3125q-0.28125 -0.0625 -1.109375 -0.0625l-0.609375 0zm5.033386 7.515625q0.375 -0.8125 0.53125 -1.25q0.15625 -0.4375 0.28125 -1.0q0.140625 -0.5625 0.203125 -1.0625q0.0625 -0.515625 0.0625 -1.046875q0 -1.078125 -0.234375 -2.046875q-0.234375 -0.96875 -0.84375 -2.359375l0.859375 0q0.6875 0.984375 1.0625 2.09375q0.390625 1.09375 0.390625 2.21875q0 0.953125 -0.296875 2.03125q-0.34375 1.234375 -1.125 2.421875l-0.890625 0z" fill-rule="nonzero"/><path fill="#000000" d="m474.87463 107.71853l-0.8125 0l0 -5.21875q-0.296875 0.28125 -0.78125 0.5625q-0.484375 0.28125 -0.859375 0.421875l0 -0.796875q0.6875 -0.328125 1.203125 -0.78125q0.515625 -0.453125 0.734375 -0.890625l0.515625 0l0 6.703125z" fill-rule="nonzero"/><path fill="#000000" d="m466.55908 132.97313l-0.765625 0l0 -6.6718826l0.828125 0l0 2.3750076q0.515625 -0.65625 1.3125 -0.65625q0.453125 0 0.84375 0.1875q0.40625 0.171875 0.65625 0.5q0.265625 0.328125 0.40625 0.796875q0.15625 0.453125 0.15625 0.984375q0 1.234375 -0.625 1.921875q-0.609375 0.671875 -1.46875 0.671875q-0.859375 0 -1.34375 -0.71875l0 0.609375zm-0.015625 -2.453125q0 0.875 0.234375 1.25q0.390625 0.640625 1.046875 0.640625q0.546875 0 0.9375 -0.46875q0.390625 -0.46875 0.390625 -1.390625q0 -0.953125 -0.375 -1.390625q-0.375 -0.453125 -0.90625 -0.453125q-0.546875 0 -0.9375 0.46875q-0.390625 0.453125 -0.390625 1.34375zm4.406616 4.3125l-0.09375 -0.765625q0.265625 0.078125 0.46875 0.078125q0.28125 0 0.4375 -0.09375q0.171875 -0.09375 0.265625 -0.265625q0.078125 -0.109375 0.25 -0.609375q0.03125 -0.0625 0.078125 -0.1875l-1.828125 -4.859375l0.875 0l1.015625 2.8125q0.1875 0.53125 0.34375 1.109375q0.140625 -0.5625 0.34375 -1.09375l1.03125 -2.828125l0.8125 0l-1.84375 4.921875q-0.28125 0.796875 -0.453125 1.09375q-0.21875 0.40625 -0.5 0.59375q-0.28125 0.203125 -0.671875 0.203125q-0.234375 0 -0.53125 -0.109375zm6.4921875 -2.59375l0.109375 0.71875q-0.34375 0.078125 -0.609375 0.078125q-0.453125 0 -0.703125 -0.140625q-0.234375 -0.140625 -0.34375 -0.359375q-0.09375 -0.234375 -0.09375 -0.984375l0 -2.78125l-0.609375 0l0 -0.640625l0.609375 0l0 -1.1875076l0.8125 -0.5l0 1.6875076l0.828125 0l0 0.640625l-0.828125 0l0 2.828125q0 0.359375 0.046875 0.46875q0.046875 0.09375 0.140625 0.15625q0.09375 0.046875 0.28125 0.046875q0.140625 0 0.359375 -0.03125zm4.1073 -0.828125l0.84375 0.109375q-0.1875 0.75 -0.734375 1.15625q-0.546875 0.40625 -1.390625 0.40625q-1.0625 0 -1.6875 -0.65625q-0.609375 -0.65625 -0.609375 -1.828125q0 -1.21875 0.625 -1.890625q0.625 -0.6875 1.625 -0.6875q0.984375 0 1.59375 0.671875q0.609375 0.65625 0.609375 1.859375q0 0.0625 0 0.21875l-3.609375 0q0.046875 0.796875 0.453125 1.21875q0.40625 0.421875 1.015625 0.421875q0.453125 0 0.765625 -0.234375q0.3125 -0.234375 0.5 -0.765625zm-2.6875 -1.328125l2.703125 0q-0.0625 -0.609375 -0.3125 -0.90625q-0.390625 -0.46875 -1.015625 -0.46875q-0.5625 0 -0.953125 0.375q-0.375 0.375 -0.421875 1.0z" fill-rule="nonzero"/><path fill="#000000" d="m466.84033 154.60272q-0.515625 -0.1875 -0.765625 -0.53125q-0.25 -0.34375 -0.25 -0.828125q0 -0.734375 0.515625 -1.21875q0.53125 -0.5 1.40625 -0.5q0.875 0 1.40625 0.515625q0.53125 0.5 0.53125 1.234375q0 0.453125 -0.25 0.796875q-0.234375 0.34375 -0.734375 0.53125q0.625 0.203125 0.9375 0.65625q0.328125 0.4375 0.328125 1.0625q0 0.859375 -0.609375 1.4375q-0.609375 0.578125 -1.59375 0.578125q-0.984375 0 -1.59375 -0.578125q-0.609375 -0.59375 -0.609375 -1.46875q0 -0.640625 0.328125 -1.078125q0.328125 -0.453125 0.953125 -0.609375zm-0.171875 -1.390625q0 0.484375 0.296875 0.78125q0.3125 0.296875 0.796875 0.296875q0.484375 0 0.78125 -0.296875q0.296875 -0.296875 0.296875 -0.734375q0 -0.453125 -0.3125 -0.75q-0.3125 -0.3125 -0.765625 -0.3125q-0.46875 0 -0.78125 0.3125q-0.3125 0.296875 -0.3125 0.703125zm-0.265625 3.09375q0 0.34375 0.15625 0.671875q0.171875 0.328125 0.5 0.515625q0.328125 0.171875 0.71875 0.171875q0.578125 0 0.953125 -0.375q0.390625 -0.375 0.390625 -0.96875q0 -0.578125 -0.390625 -0.96875q-0.390625 -0.390625 -0.984375 -0.390625q-0.578125 0 -0.96875 0.390625q-0.375 0.375 -0.375 0.953125zm7.935791 1.921875l-0.765625 0l0 -6.671875l0.828125 0l0 2.375q0.515625 -0.65625 1.3125 -0.65625q0.453125 0 0.84375 0.1875q0.40625 0.171875 0.65625 0.5q0.265625 0.328125 0.40625 0.796875q0.15625 0.453125 0.15625 0.984375q0 1.234375 -0.625 1.921875q-0.609375 0.671875 -1.46875 0.671875q-0.859375 0 -1.34375 -0.71875l0 0.609375zm-0.015625 -2.453125q0 0.875 0.234375 1.25q0.390625 0.640625 1.046875 0.640625q0.546875 0 0.9375 -0.46875q0.390625 -0.46875 0.390625 -1.390625q0 -0.953125 -0.375 -1.390625q-0.375 -0.453125 -0.90625 -0.453125q-0.546875 0 -0.9375 0.46875q-0.390625 0.453125 -0.390625 1.34375zm4.453491 -3.28125l0 -0.9375l0.8125 0l0 0.9375l-0.8125 0zm0 5.734375l0 -4.84375l0.8125 0l0 4.84375l-0.8125 0zm3.8536682 -0.734375l0.109375 0.71875q-0.34375 0.078125 -0.609375 0.078125q-0.453125 0 -0.703125 -0.140625q-0.234375 -0.140625 -0.34375 -0.359375q-0.09375 -0.234375 -0.09375 -0.984375l0 -2.78125l-0.609375 0l0 -0.640625l0.609375 0l0 -1.1875l0.8125 -0.5l0 1.6875l0.828125 0l0 0.640625l-0.828125 0l0 2.828125q0 0.359375 0.046875 0.46875q0.046875 0.09375 0.140625 0.15625q0.09375 0.046875 0.28125 0.046875q0.140625 0 0.359375 -0.03125z" fill-rule="nonzero"/><path fill="#000000" d="m455.76764 183.48232l-0.8125 0l0 -5.21875q-0.296875 0.28125 -0.78125 0.5625q-0.484375 0.28125 -0.859375 0.421875l0 -0.796875q0.6875 -0.328125 1.203125 -0.78125q0.515625 -0.453125 0.734375 -0.890625l0.515625 0l0 6.703125zm2.1097412 -3.296875q0 -1.1875 0.234375 -1.90625q0.25 -0.71875 0.71875 -1.109375q0.484375 -0.390625 1.21875 -0.390625q0.546875 0 0.9375 0.21875q0.40625 0.21875 0.671875 0.625q0.265625 0.40625 0.40625 1.0q0.15625 0.578125 0.15625 1.5625q0 1.171875 -0.234375 1.90625q-0.234375 0.71875 -0.71875 1.109375q-0.484375 0.390625 -1.21875 0.390625q-0.96875 0 -1.515625 -0.6875q-0.65625 -0.828125 -0.65625 -2.71875zm0.84375 0q0 1.640625 0.375 2.1875q0.390625 0.546875 0.953125 0.546875q0.5625 0 0.953125 -0.546875q0.390625 -0.546875 0.390625 -2.1875q0 -1.640625 -0.390625 -2.1875q-0.390625 -0.546875 -0.953125 -0.546875q-0.578125 0 -0.90625 0.484375q-0.421875 0.609375 -0.421875 2.25zm7.422241 3.296875l-0.8125 0l0 -5.21875q-0.296875 0.28125 -0.78125 0.5625q-0.484375 0.28125 -0.859375 0.421875l0 -0.796875q0.6875 -0.328125 1.203125 -0.78125q0.515625 -0.453125 0.734375 -0.890625l0.515625 0l0 6.703125zm2.1097412 -3.296875q0 -1.1875 0.234375 -1.90625q0.25 -0.71875 0.71875 -1.109375q0.484375 -0.390625 1.21875 -0.390625q0.546875 0 0.9375 0.21875q0.40625 0.21875 0.671875 0.625q0.265625 0.40625 0.40625 1.0q0.15625 0.578125 0.15625 1.5625q0 1.171875 -0.234375 1.90625q-0.234375 0.71875 -0.71875 1.109375q-0.484375 0.390625 -1.21875 0.390625q-0.96875 0 -1.515625 -0.6875q-0.65625 -0.828125 -0.65625 -2.71875zm0.84375 0q0 1.640625 0.375 2.1875q0.390625 0.546875 0.953125 0.546875q0.5625 0 0.953125 -0.546875q0.390625 -0.546875 0.390625 -2.1875q0 -1.640625 -0.390625 -2.1875q-0.390625 -0.546875 -0.953125 -0.546875q-0.578125 0 -0.90625 0.484375q-0.421875 0.609375 -0.421875 2.25zm10.0138855 3.296875l-0.8125 0l0 -5.21875q-0.296875 0.28125 -0.78125 0.5625q-0.484375 0.28125 -0.859375 0.421875l0 -0.796875q0.6875 -0.328125 1.203125 -0.78125q0.515625 -0.453125 0.734375 -0.890625l0.515625 0l0 6.703125zm2.1097412 -3.296875q0 -1.1875 0.234375 -1.90625q0.25 -0.71875 0.71875 -1.109375q0.484375 -0.390625 1.21875 -0.390625q0.546875 0 0.9375 0.21875q0.40625 0.21875 0.671875 0.625q0.265625 0.40625 0.40625 1.0q0.15625 0.578125 0.15625 1.5625q0 1.171875 -0.234375 1.90625q-0.234375 0.71875 -0.71875 1.109375q-0.484375 0.390625 -1.21875 0.390625q-0.96875 0 -1.515625 -0.6875q-0.65625 -0.828125 -0.65625 -2.71875zm0.84375 0q0 1.640625 0.375 2.1875q0.390625 0.546875 0.953125 0.546875q0.5625 0 0.953125 -0.546875q0.390625 -0.546875 0.390625 -2.1875q0 -1.640625 -0.390625 -2.1875q-0.390625 -0.546875 -0.953125 -0.546875q-0.578125 0 -0.90625 0.484375q-0.421875 0.609375 -0.421875 2.25zm7.422241 3.296875l-0.8125 0l0 -5.21875q-0.296875 0.28125 -0.78125 0.5625q-0.484375 0.28125 -0.859375 0.421875l0 -0.796875q0.6875 -0.328125 1.203125 -0.78125q0.515625 -0.453125 0.734375 -0.890625l0.515625 0l0 6.703125zm4.495178 0l-0.8125 0l0 -5.21875q-0.296875 0.28125 -0.78125 0.5625q-0.484375 0.28125 -0.859375 0.421875l0 -0.796875q0.6875 -0.328125 1.203125 -0.78125q0.515625 -0.453125 0.734375 -0.890625l0.515625 0l0 6.703125z" fill-rule="nonzero"/><path fill="#000000" d="m464.5083 204.10666q-0.515625 -0.1875 -0.765625 -0.53125q-0.25 -0.34375 -0.25 -0.828125q0 -0.734375 0.515625 -1.21875q0.53125 -0.5 1.40625 -0.5q0.875 0 1.40625 0.515625q0.53125 0.5 0.53125 1.234375q0 0.453125 -0.25 0.796875q-0.234375 0.34375 -0.734375 0.53125q0.625 0.203125 0.9375 0.65625q0.328125 0.4375 0.328125 1.0625q0 0.859375 -0.609375 1.4375q-0.609375 0.578125 -1.59375 0.578125q-0.984375 0 -1.59375 -0.578125q-0.609375 -0.59375 -0.609375 -1.46875q0 -0.640625 0.328125 -1.078125q0.328125 -0.453125 0.953125 -0.609375zm-0.171875 -1.390625q0 0.484375 0.296875 0.78125q0.3125 0.296875 0.796875 0.296875q0.484375 0 0.78125 -0.296875q0.296875 -0.296875 0.296875 -0.734375q0 -0.453125 -0.3125 -0.75q-0.3125 -0.3125 -0.765625 -0.3125q-0.46875 0 -0.78125 0.3125q-0.3125 0.296875 -0.3125 0.703125zm-0.265625 3.09375q0 0.34375 0.15625 0.671875q0.171875 0.328125 0.5 0.515625q0.328125 0.171875 0.71875 0.171875q0.578125 0 0.953125 -0.375q0.390625 -0.375 0.390625 -0.96875q0 -0.578125 -0.390625 -0.96875q-0.390625 -0.390625 -0.984375 -0.390625q-0.578125 0 -0.96875 0.390625q-0.375 0.375 -0.375 0.953125zm7.935791 1.921875l-0.765625 0l0 -6.671875l0.828125 0l0 2.375q0.515625 -0.65625 1.3125 -0.65625q0.453125 0 0.84375 0.1875q0.40625 0.171875 0.65625 0.5q0.265625 0.328125 0.40625 0.796875q0.15625 0.453125 0.15625 0.984375q0 1.234375 -0.625 1.921875q-0.609375 0.671875 -1.46875 0.671875q-0.859375 0 -1.34375 -0.71875l0 0.609375zm-0.015625 -2.453125q0 0.875 0.234375 1.25q0.390625 0.640625 1.046875 0.640625q0.546875 0 0.9375 -0.46875q0.390625 -0.46875 0.390625 -1.390625q0 -0.953125 -0.375 -1.390625q-0.375 -0.453125 -0.90625 -0.453125q-0.546875 0 -0.9375 0.46875q-0.390625 0.453125 -0.390625 1.34375zm4.453491 -3.28125l0 -0.9375l0.8125 0l0 0.9375l-0.8125 0zm0 5.734375l0 -4.84375l0.8125 0l0 4.84375l-0.8125 0zm3.8536682 -0.734375l0.109375 0.71875q-0.34375 0.078125 -0.609375 0.078125q-0.453125 0 -0.703125 -0.140625q-0.234375 -0.140625 -0.34375 -0.359375q-0.09375 -0.234375 -0.09375 -0.984375l0 -2.78125l-0.609375 0l0 -0.640625l0.609375 0l0 -1.1875l0.8125 -0.5l0 1.6875l0.828125 0l0 0.640625l-0.828125 0l0 2.828125q0 0.359375 0.046875 0.46875q0.046875 0.09375 0.140625 0.15625q0.09375 0.046875 0.28125 0.046875q0.140625 0 0.359375 -0.03125zm0.4666443 -0.703125l0.8125 -0.140625q0.078125 0.5 0.390625 0.765625q0.3125 0.25 0.859375 0.25q0.578125 0 0.84375 -0.234375q0.28125 -0.234375 0.28125 -0.53125q0 -0.28125 -0.25 -0.4375q-0.171875 -0.109375 -0.84375 -0.28125q-0.890625 -0.234375 -1.25 -0.390625q-0.34375 -0.171875 -0.53125 -0.46875q-0.171875 -0.296875 -0.171875 -0.640625q0 -0.328125 0.140625 -0.59375q0.15625 -0.28125 0.40625 -0.46875q0.203125 -0.140625 0.53125 -0.234375q0.328125 -0.109375 0.703125 -0.109375q0.578125 0 1.0 0.171875q0.4375 0.15625 0.640625 0.4375q0.203125 0.28125 0.28125 0.75l-0.796875 0.109375q-0.0625 -0.375 -0.328125 -0.578125q-0.265625 -0.203125 -0.734375 -0.203125q-0.5625 0 -0.8125 0.1875q-0.234375 0.171875 -0.234375 0.4375q0 0.15625 0.09375 0.28125q0.109375 0.125 0.3125 0.21875q0.125 0.046875 0.734375 0.203125q0.859375 0.234375 1.203125 0.390625q0.34375 0.140625 0.53125 0.421875q0.203125 0.28125 0.203125 0.703125q0 0.40625 -0.234375 0.78125q-0.234375 0.359375 -0.6875 0.5625q-0.453125 0.1875 -1.015625 0.1875q-0.953125 0 -1.453125 -0.390625q-0.484375 -0.390625 -0.625 -1.15625z" fill-rule="nonzero"/><path fill="#cfe2f3" d="m11.965881 12.0l528.0315 0l0 36.0l-528.0315 0z" fill-rule="evenodd"/><path stroke="#000000" stroke-width="1.0" stroke-linejoin="round" stroke-linecap="butt" d="m11.965881 12.0l528.0315 0l0 36.0l-528.0315 0z" fill-rule="evenodd"/><path fill="#000000" d="m266.5333 36.92l0 -13.25l2.6874695 0l0 11.0l6.703125 0l0 2.25l-9.3905945 0zm17.302216 0l-2.5625 0l0 -9.640625q-1.40625 1.3125 -3.3125 1.9375l0 -2.328125q1.015625 -0.328125 2.1875 -1.234375q1.171875 -0.921875 1.609375 -2.140625l2.078125 0l0 13.40625z" fill-rule="nonzero"/></g></svg>